# MagicaVoxel @ Ephtracy

# group
o 

# material
mtllib untitled-1.mtl
usemtl palette

# normals
vn -1 0 0
vn 1 0 0
vn 0 0 1
vn 0 0 -1
vn 0 -1 0
vn 0 1 0

# texcoords
vt 0.537109 0.5
vt 0.994141 0.5

# verts
v -1.7 0.8 0
v -1.7 0.8 -0.1
v -1.7 0.9 0
v -1.7 0.9 -0.1
v -0.1 0 0.1
v -0.1 0 -0.2
v -0.1 0.8 0
v -0.1 0.8 -0.1
v -0.1 0.9 0
v -0.1 0.9 -0.1
v -0.1 1 0.1
v -0.1 1 -0.2
v 2.5 0.4 0.1
v 2.5 0.4 -0.2
v 2.5 0.5 0.1
v 2.5 0.5 -0.2
v 2.6 0.3 0
v 2.6 0.3 -0.1
v 2.6 0.4 0
v 2.6 0.4 -0.1
v 2.7 0.4 0.1
v 2.7 0.4 0
v 2.7 0.4 -0.1
v 2.7 0.4 -0.2
v 2.7 0.5 0.1
v 2.7 0.5 0
v 2.7 0.5 -0.1
v 2.7 0.5 -0.2
v 3.3 0.1 0.1
v 3.3 0.1 -0.2
v 3.3 0.5 0.1
v 3.3 0.5 -0.2
v 3.4 0 0.1
v 3.4 0 -0.2
v 3.4 0.1 0.1
v 3.4 0.1 -0.2
v 0.3 0 0.1
v 0.3 0 -0.2
v 0.3 0.5 0.1
v 0.3 0.5 -0.2
v 2.6 0.4 0.1
v 2.6 0.4 0
v 2.6 0.4 -0.1
v 2.6 0.4 -0.2
v 2.6 0.5 0.1
v 2.6 0.5 0
v 2.6 0.5 -0.1
v 2.6 0.5 -0.2
v 2.7 0.3 0
v 2.7 0.3 -0.1
v 2.7 0.4 0
v 2.7 0.4 -0.1
v 2.8 0.4 0.1
v 2.8 0.4 -0.2
v 2.8 0.5 0.1
v 2.8 0.5 -0.2
v 3.8 0.2 0.1
v 3.8 0.2 -0.2
v 3.8 0.5 0.1
v 3.8 0.5 -0.2
v 3.8 1 0.1
v 3.8 1 -0.2
v 3.9 0.1 0.1
v 3.9 0.1 -0.2
v 3.9 0.2 0.1
v 3.9 0.2 -0.2
v 4 0 0.1
v 4 0 -0.2
v 4 0.1 0.1
v 4 0.1 -0.2
v -0.1 0 0.1
v -0.1 1 0.1
v 0.3 0 0.1
v 0.3 0.5 0.1
v 2.5 0.4 0.1
v 2.5 0.5 0.1
v 2.6 0.4 0.1
v 2.6 0.5 0.1
v 2.7 0.4 0.1
v 2.7 0.5 0.1
v 2.8 0.4 0.1
v 2.8 0.5 0.1
v 3.3 0.1 0.1
v 3.3 0.5 0.1
v 3.4 0 0.1
v 3.4 0.1 0.1
v 3.8 0.2 0.1
v 3.8 0.5 0.1
v 3.8 1 0.1
v 3.9 0.1 0.1
v 3.9 0.2 0.1
v 4 0 0.1
v 4 0.1 0.1
v -1.7 0.8 0
v -1.7 0.9 0
v -0.1 0.8 0
v -0.1 0.9 0
v 2.6 0.3 0
v 2.6 0.4 0
v 2.6 0.5 0
v 2.7 0.3 0
v 2.7 0.4 0
v 2.7 0.5 0
v -1.7 0.8 -0.1
v -1.7 0.9 -0.1
v -0.1 0.8 -0.1
v -0.1 0.9 -0.1
v 2.6 0.3 -0.1
v 2.6 0.4 -0.1
v 2.6 0.5 -0.1
v 2.7 0.3 -0.1
v 2.7 0.4 -0.1
v 2.7 0.5 -0.1
v -0.1 0 -0.2
v -0.1 1 -0.2
v 0.3 0 -0.2
v 0.3 0.5 -0.2
v 2.5 0.4 -0.2
v 2.5 0.5 -0.2
v 2.6 0.4 -0.2
v 2.6 0.5 -0.2
v 2.7 0.4 -0.2
v 2.7 0.5 -0.2
v 2.8 0.4 -0.2
v 2.8 0.5 -0.2
v 3.3 0.1 -0.2
v 3.3 0.5 -0.2
v 3.4 0 -0.2
v 3.4 0.1 -0.2
v 3.8 0.2 -0.2
v 3.8 0.5 -0.2
v 3.8 1 -0.2
v 3.9 0.1 -0.2
v 3.9 0.2 -0.2
v 4 0 -0.2
v 4 0.1 -0.2
v -0.1 0 0.1
v 0.3 0 0.1
v 3.4 0 0.1
v 4 0 0.1
v -0.1 0 -0.2
v 0.3 0 -0.2
v 3.4 0 -0.2
v 4 0 -0.2
v 3.3 0.1 0.1
v 3.4 0.1 0.1
v 3.3 0.1 -0.2
v 3.4 0.1 -0.2
v 2.6 0.3 0
v 2.7 0.3 0
v 2.6 0.3 -0.1
v 2.7 0.3 -0.1
v 2.5 0.4 0.1
v 2.6 0.4 0.1
v 2.7 0.4 0.1
v 2.8 0.4 0.1
v 2.6 0.4 0
v 2.7 0.4 0
v 2.6 0.4 -0.1
v 2.7 0.4 -0.1
v 2.5 0.4 -0.2
v 2.6 0.4 -0.2
v 2.7 0.4 -0.2
v 2.8 0.4 -0.2
v 0.3 0.5 0.1
v 2.5 0.5 0.1
v 2.6 0.5 0.1
v 2.7 0.5 0.1
v 2.8 0.5 0.1
v 3.3 0.5 0.1
v 2.6 0.5 0
v 2.7 0.5 0
v 2.6 0.5 -0.1
v 2.7 0.5 -0.1
v 0.3 0.5 -0.2
v 2.5 0.5 -0.2
v 2.6 0.5 -0.2
v 2.7 0.5 -0.2
v 2.8 0.5 -0.2
v 3.3 0.5 -0.2
v -1.7 0.8 0
v -0.1 0.8 0
v -1.7 0.8 -0.1
v -0.1 0.8 -0.1
v 3.9 0.1 0.1
v 4 0.1 0.1
v 3.9 0.1 -0.2
v 4 0.1 -0.2
v 3.8 0.2 0.1
v 3.9 0.2 0.1
v 3.8 0.2 -0.2
v 3.9 0.2 -0.2
v -1.7 0.9 0
v -0.1 0.9 0
v -1.7 0.9 -0.1
v -0.1 0.9 -0.1
v -0.1 1 0.1
v 3.8 1 0.1
v -0.1 1 -0.2
v 3.8 1 -0.2

# faces
f 3/2/1 2/2/1 1/2/1
f 4/2/1 2/2/1 3/2/1
f 7/2/1 6/2/1 5/2/1
f 8/2/1 6/2/1 7/2/1
f 9/2/1 7/2/1 5/2/1
f 10/2/1 6/2/1 8/2/1
f 11/2/1 9/2/1 5/2/1
f 11/2/1 10/2/1 9/2/1
f 12/2/1 6/2/1 10/2/1
f 12/2/1 10/2/1 11/2/1
f 15/2/1 14/2/1 13/2/1
f 16/2/1 14/2/1 15/2/1
f 19/2/1 18/2/1 17/2/1
f 20/2/1 18/2/1 19/2/1
f 25/2/1 22/2/1 21/2/1
f 26/2/1 22/2/1 25/2/1
f 27/2/1 24/2/1 23/2/1
f 28/2/1 24/2/1 27/2/1
f 31/1/1 30/1/1 29/1/1
f 32/1/1 30/1/1 31/1/1
f 35/1/1 34/1/1 33/1/1
f 36/1/1 34/1/1 35/1/1
f 37/2/2 38/2/2 39/2/2
f 39/2/2 38/2/2 40/2/2
f 41/2/2 42/2/2 45/2/2
f 45/2/2 42/2/2 46/2/2
f 43/2/2 44/2/2 47/2/2
f 47/2/2 44/2/2 48/2/2
f 49/2/2 50/2/2 51/2/2
f 51/2/2 50/2/2 52/2/2
f 53/2/2 54/2/2 55/2/2
f 55/2/2 54/2/2 56/2/2
f 57/1/2 58/1/2 59/1/2
f 59/1/2 58/1/2 60/1/2
f 59/2/2 60/2/2 61/2/2
f 61/2/2 60/2/2 62/2/2
f 63/1/2 64/1/2 65/1/2
f 65/1/2 64/1/2 66/1/2
f 67/1/2 68/1/2 69/1/2
f 69/1/2 68/1/2 70/1/2
f 73/2/3 72/2/3 71/2/3
f 74/2/3 72/2/3 73/2/3
f 76/2/3 72/2/3 74/2/3
f 77/2/3 76/2/3 75/2/3
f 78/2/3 72/2/3 76/2/3
f 78/2/3 76/2/3 77/2/3
f 80/2/3 72/2/3 78/2/3
f 81/2/3 80/2/3 79/2/3
f 82/2/3 72/2/3 80/2/3
f 82/2/3 80/2/3 81/2/3
f 84/2/3 72/2/3 82/2/3
f 86/1/3 84/1/3 83/1/3
f 87/1/3 84/1/3 86/1/3
f 87/1/3 86/1/3 85/1/3
f 88/2/3 72/2/3 84/2/3
f 88/1/3 84/1/3 87/1/3
f 89/2/3 72/2/3 88/2/3
f 90/1/3 87/1/3 85/1/3
f 91/1/3 87/1/3 90/1/3
f 92/1/3 90/1/3 85/1/3
f 93/1/3 90/1/3 92/1/3
f 96/2/3 95/2/3 94/2/3
f 97/2/3 95/2/3 96/2/3
f 101/2/3 99/2/3 98/2/3
f 101/2/3 100/2/3 99/2/3
f 102/2/3 100/2/3 101/2/3
f 103/2/3 100/2/3 102/2/3
f 104/2/4 105/2/4 106/2/4
f 106/2/4 105/2/4 107/2/4
f 108/2/4 109/2/4 111/2/4
f 109/2/4 110/2/4 111/2/4
f 111/2/4 110/2/4 112/2/4
f 112/2/4 110/2/4 113/2/4
f 114/2/4 115/2/4 116/2/4
f 116/2/4 115/2/4 117/2/4
f 117/2/4 115/2/4 119/2/4
f 118/2/4 119/2/4 120/2/4
f 119/2/4 115/2/4 121/2/4
f 120/2/4 119/2/4 121/2/4
f 121/2/4 115/2/4 123/2/4
f 122/2/4 123/2/4 124/2/4
f 123/2/4 115/2/4 125/2/4
f 124/2/4 123/2/4 125/2/4
f 125/2/4 115/2/4 127/2/4
f 126/1/4 127/1/4 129/1/4
f 129/1/4 127/1/4 130/1/4
f 128/1/4 129/1/4 130/1/4
f 127/2/4 115/2/4 131/2/4
f 130/1/4 127/1/4 131/1/4
f 131/2/4 115/2/4 132/2/4
f 128/1/4 130/1/4 133/1/4
f 133/1/4 130/1/4 134/1/4
f 128/1/4 133/1/4 135/1/4
f 135/1/4 133/1/4 136/1/4
f 141/2/5 138/2/5 137/2/5
f 142/2/5 138/2/5 141/2/5
f 143/1/5 140/1/5 139/1/5
f 144/1/5 140/1/5 143/1/5
f 147/1/5 146/1/5 145/1/5
f 148/1/5 146/1/5 147/1/5
f 151/2/5 150/2/5 149/2/5
f 152/2/5 150/2/5 151/2/5
f 157/2/5 154/2/5 153/2/5
f 158/2/5 156/2/5 155/2/5
f 159/2/5 157/2/5 153/2/5
f 160/2/5 156/2/5 158/2/5
f 161/2/5 159/2/5 153/2/5
f 162/2/5 159/2/5 161/2/5
f 163/2/5 156/2/5 160/2/5
f 164/2/5 156/2/5 163/2/5
f 171/2/5 168/2/5 167/2/5
f 172/2/5 168/2/5 171/2/5
f 175/2/5 166/2/5 165/2/5
f 176/2/5 166/2/5 175/2/5
f 177/2/5 174/2/5 173/2/5
f 178/2/5 174/2/5 177/2/5
f 179/2/5 170/2/5 169/2/5
f 180/2/5 170/2/5 179/2/5
f 183/2/5 182/2/5 181/2/5
f 184/2/5 182/2/5 183/2/5
f 185/1/6 186/1/6 187/1/6
f 187/1/6 186/1/6 188/1/6
f 189/1/6 190/1/6 191/1/6
f 191/1/6 190/1/6 192/1/6
f 193/2/6 194/2/6 195/2/6
f 195/2/6 194/2/6 196/2/6
f 197/2/6 198/2/6 199/2/6
f 199/2/6 198/2/6 200/2/6
