# MagicaVoxel @ Ephtracy

# group
o 

# material
mtllib untitled-0.mtl
usemtl palette

# normals
vn -1 0 0
vn 1 0 0
vn 0 0 1
vn 0 0 -1
vn 0 -1 0
vn 0 1 0

# texcoords
vt 0.537109 0.5
vt 0.927734 0.5
vt 0.994141 0.5

# verts
v -8.1 0.8 0
v -8.1 0.8 -0.1
v -8.1 0.9 0
v -8.1 0.9 -0.1
v -6.5 0 0.1
v -6.5 0 -0.2
v -6.5 0.8 0
v -6.5 0.8 -0.1
v -6.5 0.9 0
v -6.5 0.9 -0.1
v -6.5 1 0.1
v -6.5 1 -0.2
v -5.3 1 0.1
v -5.3 1 -0.2
v -5.3 1.1 0
v -5.3 1.1 -0.1
v -5.3 1.2 0
v -5.3 1.2 -0.1
v -5.3 1.3 0.1
v -5.3 1.3 -0.2
v -4.7 1.1 0
v -4.7 1.1 -0.1
v -4.7 1.2 0
v -4.7 1.2 -0.1
v -3.9 0.4 0.1
v -3.9 0.4 -0.2
v -3.9 0.5 0.1
v -3.9 0.5 -0.2
v -3.8 0.3 0
v -3.8 0.3 -0.1
v -3.8 0.4 0
v -3.8 0.4 -0.1
v -3.7 0.4 0.1
v -3.7 0.4 0
v -3.7 0.4 -0.1
v -3.7 0.4 -0.2
v -3.7 0.5 0.1
v -3.7 0.5 0
v -3.7 0.5 -0.1
v -3.7 0.5 -0.2
v -3.1 0.1 0.1
v -3.1 0.1 -0.2
v -3.1 0.5 0.1
v -3.1 0.5 -0.2
v -3 0 0.1
v -3 0 -0.2
v -3 0.1 0.1
v -3 0.1 -0.2
v -6.1 0 0.1
v -6.1 0 -0.2
v -6.1 0.5 0.1
v -6.1 0.5 -0.2
v -5.2 1.1 0
v -5.2 1.1 -0.1
v -5.2 1.2 0
v -5.2 1.2 -0.1
v -4.6 1 0.1
v -4.6 1 -0.2
v -4.6 1.1 0
v -4.6 1.1 -0.1
v -4.6 1.2 0
v -4.6 1.2 -0.1
v -4.6 1.3 0.1
v -4.6 1.3 -0.2
v -3.8 0.4 0.1
v -3.8 0.4 0
v -3.8 0.4 -0.1
v -3.8 0.4 -0.2
v -3.8 0.5 0.1
v -3.8 0.5 0
v -3.8 0.5 -0.1
v -3.8 0.5 -0.2
v -3.7 0.3 0
v -3.7 0.3 -0.1
v -3.7 0.4 0
v -3.7 0.4 -0.1
v -3.6 0.4 0.1
v -3.6 0.4 -0.2
v -3.6 0.5 0.1
v -3.6 0.5 -0.2
v -2.6 0.2 0.1
v -2.6 0.2 -0.2
v -2.6 0.5 0.1
v -2.6 0.5 -0.2
v -2.6 1 0.1
v -2.6 1 -0.2
v -2.5 0.1 0.1
v -2.5 0.1 -0.2
v -2.5 0.2 0.1
v -2.5 0.2 -0.2
v -2.4 0 0.1
v -2.4 0 -0.2
v -2.4 0.1 0.1
v -2.4 0.1 -0.2
v -6.5 0 0.1
v -6.5 1 0.1
v -6.1 0 0.1
v -6.1 0.5 0.1
v -5.3 1 0.1
v -5.3 1.3 0.1
v -4.6 1 0.1
v -4.6 1.3 0.1
v -3.9 0.4 0.1
v -3.9 0.5 0.1
v -3.8 0.4 0.1
v -3.8 0.5 0.1
v -3.7 0.4 0.1
v -3.7 0.5 0.1
v -3.6 0.4 0.1
v -3.6 0.5 0.1
v -3.1 0.1 0.1
v -3.1 0.5 0.1
v -3 0 0.1
v -3 0.1 0.1
v -2.6 0.2 0.1
v -2.6 0.5 0.1
v -2.6 1 0.1
v -2.5 0.1 0.1
v -2.5 0.2 0.1
v -2.4 0 0.1
v -2.4 0.1 0.1
v -8.1 0.8 0
v -8.1 0.9 0
v -6.5 0.8 0
v -6.5 0.9 0
v -3.8 0.3 0
v -3.8 0.4 0
v -3.8 0.5 0
v -3.7 0.3 0
v -3.7 0.4 0
v -3.7 0.5 0
v -5.2 1.1 -0.1
v -5.2 1.2 -0.1
v -4.7 1.1 -0.1
v -4.7 1.2 -0.1
v -5.2 1.1 0
v -5.2 1.2 0
v -4.7 1.1 0
v -4.7 1.2 0
v -8.1 0.8 -0.1
v -8.1 0.9 -0.1
v -6.5 0.8 -0.1
v -6.5 0.9 -0.1
v -3.8 0.3 -0.1
v -3.8 0.4 -0.1
v -3.8 0.5 -0.1
v -3.7 0.3 -0.1
v -3.7 0.4 -0.1
v -3.7 0.5 -0.1
v -6.5 0 -0.2
v -6.5 1 -0.2
v -6.1 0 -0.2
v -6.1 0.5 -0.2
v -5.3 1 -0.2
v -5.3 1.3 -0.2
v -4.6 1 -0.2
v -4.6 1.3 -0.2
v -3.9 0.4 -0.2
v -3.9 0.5 -0.2
v -3.8 0.4 -0.2
v -3.8 0.5 -0.2
v -3.7 0.4 -0.2
v -3.7 0.5 -0.2
v -3.6 0.4 -0.2
v -3.6 0.5 -0.2
v -3.1 0.1 -0.2
v -3.1 0.5 -0.2
v -3 0 -0.2
v -3 0.1 -0.2
v -2.6 0.2 -0.2
v -2.6 0.5 -0.2
v -2.6 1 -0.2
v -2.5 0.1 -0.2
v -2.5 0.2 -0.2
v -2.4 0 -0.2
v -2.4 0.1 -0.2
v -6.5 0 0.1
v -6.1 0 0.1
v -3 0 0.1
v -2.4 0 0.1
v -6.5 0 -0.2
v -6.1 0 -0.2
v -3 0 -0.2
v -2.4 0 -0.2
v -3.1 0.1 0.1
v -3 0.1 0.1
v -3.1 0.1 -0.2
v -3 0.1 -0.2
v -3.8 0.3 0
v -3.7 0.3 0
v -3.8 0.3 -0.1
v -3.7 0.3 -0.1
v -3.9 0.4 0.1
v -3.8 0.4 0.1
v -3.7 0.4 0.1
v -3.6 0.4 0.1
v -3.8 0.4 0
v -3.7 0.4 0
v -3.8 0.4 -0.1
v -3.7 0.4 -0.1
v -3.9 0.4 -0.2
v -3.8 0.4 -0.2
v -3.7 0.4 -0.2
v -3.6 0.4 -0.2
v -6.1 0.5 0.1
v -3.9 0.5 0.1
v -3.8 0.5 0.1
v -3.7 0.5 0.1
v -3.6 0.5 0.1
v -3.1 0.5 0.1
v -3.8 0.5 0
v -3.7 0.5 0
v -3.8 0.5 -0.1
v -3.7 0.5 -0.1
v -6.1 0.5 -0.2
v -3.9 0.5 -0.2
v -3.8 0.5 -0.2
v -3.7 0.5 -0.2
v -3.6 0.5 -0.2
v -3.1 0.5 -0.2
v -8.1 0.8 0
v -6.5 0.8 0
v -8.1 0.8 -0.1
v -6.5 0.8 -0.1
v -5.2 1.2 0
v -4.7 1.2 0
v -5.2 1.2 -0.1
v -4.7 1.2 -0.1
v -2.5 0.1 0.1
v -2.4 0.1 0.1
v -2.5 0.1 -0.2
v -2.4 0.1 -0.2
v -2.6 0.2 0.1
v -2.5 0.2 0.1
v -2.6 0.2 -0.2
v -2.5 0.2 -0.2
v -8.1 0.9 0
v -6.5 0.9 0
v -8.1 0.9 -0.1
v -6.5 0.9 -0.1
v -6.5 1 0.1
v -5.3 1 0.1
v -4.6 1 0.1
v -2.6 1 0.1
v -6.5 1 -0.2
v -5.3 1 -0.2
v -4.6 1 -0.2
v -2.6 1 -0.2
v -5.2 1.1 0
v -4.7 1.1 0
v -5.2 1.1 -0.1
v -4.7 1.1 -0.1
v -5.3 1.3 0.1
v -4.6 1.3 0.1
v -5.3 1.3 -0.2
v -4.6 1.3 -0.2

# faces
f 3/3/1 2/3/1 1/3/1
f 4/3/1 2/3/1 3/3/1
f 7/3/1 6/3/1 5/3/1
f 8/3/1 6/3/1 7/3/1
f 9/3/1 7/3/1 5/3/1
f 10/3/1 6/3/1 8/3/1
f 11/3/1 9/3/1 5/3/1
f 11/3/1 10/3/1 9/3/1
f 12/3/1 6/3/1 10/3/1
f 12/3/1 10/3/1 11/3/1
f 15/3/1 14/3/1 13/3/1
f 16/3/1 14/3/1 15/3/1
f 17/3/1 15/3/1 13/3/1
f 17/2/1 16/2/1 15/2/1
f 18/3/1 14/3/1 16/3/1
f 18/2/1 16/2/1 17/2/1
f 19/3/1 17/3/1 13/3/1
f 19/3/1 18/3/1 17/3/1
f 20/3/1 14/3/1 18/3/1
f 20/3/1 18/3/1 19/3/1
f 23/2/1 22/2/1 21/2/1
f 24/2/1 22/2/1 23/2/1
f 27/3/1 26/3/1 25/3/1
f 28/3/1 26/3/1 27/3/1
f 31/3/1 30/3/1 29/3/1
f 32/3/1 30/3/1 31/3/1
f 37/3/1 34/3/1 33/3/1
f 38/3/1 34/3/1 37/3/1
f 39/3/1 36/3/1 35/3/1
f 40/3/1 36/3/1 39/3/1
f 43/1/1 42/1/1 41/1/1
f 44/1/1 42/1/1 43/1/1
f 47/1/1 46/1/1 45/1/1
f 48/1/1 46/1/1 47/1/1
f 49/3/2 50/3/2 51/3/2
f 51/3/2 50/3/2 52/3/2
f 53/2/2 54/2/2 55/2/2
f 55/2/2 54/2/2 56/2/2
f 57/3/2 58/3/2 59/3/2
f 59/3/2 58/3/2 60/3/2
f 57/3/2 59/3/2 61/3/2
f 59/2/2 60/2/2 61/2/2
f 60/3/2 58/3/2 62/3/2
f 61/2/2 60/2/2 62/2/2
f 57/3/2 61/3/2 63/3/2
f 61/3/2 62/3/2 63/3/2
f 62/3/2 58/3/2 64/3/2
f 63/3/2 62/3/2 64/3/2
f 65/3/2 66/3/2 69/3/2
f 69/3/2 66/3/2 70/3/2
f 67/3/2 68/3/2 71/3/2
f 71/3/2 68/3/2 72/3/2
f 73/3/2 74/3/2 75/3/2
f 75/3/2 74/3/2 76/3/2
f 77/3/2 78/3/2 79/3/2
f 79/3/2 78/3/2 80/3/2
f 81/1/2 82/1/2 83/1/2
f 83/1/2 82/1/2 84/1/2
f 83/3/2 84/3/2 85/3/2
f 85/3/2 84/3/2 86/3/2
f 87/1/2 88/1/2 89/1/2
f 89/1/2 88/1/2 90/1/2
f 91/1/2 92/1/2 93/1/2
f 93/1/2 92/1/2 94/1/2
f 97/3/3 96/3/3 95/3/3
f 98/3/3 96/3/3 97/3/3
f 99/3/3 96/3/3 98/3/3
f 101/3/3 99/3/3 98/3/3
f 101/3/3 100/3/3 99/3/3
f 102/3/3 100/3/3 101/3/3
f 104/3/3 101/3/3 98/3/3
f 105/3/3 104/3/3 103/3/3
f 106/3/3 101/3/3 104/3/3
f 106/3/3 104/3/3 105/3/3
f 108/3/3 101/3/3 106/3/3
f 109/3/3 108/3/3 107/3/3
f 110/3/3 101/3/3 108/3/3
f 110/3/3 108/3/3 109/3/3
f 112/3/3 101/3/3 110/3/3
f 114/1/3 112/1/3 111/1/3
f 115/1/3 112/1/3 114/1/3
f 115/1/3 114/1/3 113/1/3
f 116/3/3 101/3/3 112/3/3
f 116/1/3 112/1/3 115/1/3
f 117/3/3 101/3/3 116/3/3
f 118/1/3 115/1/3 113/1/3
f 119/1/3 115/1/3 118/1/3
f 120/1/3 118/1/3 113/1/3
f 121/1/3 118/1/3 120/1/3
f 124/3/3 123/3/3 122/3/3
f 125/3/3 123/3/3 124/3/3
f 129/3/3 127/3/3 126/3/3
f 129/3/3 128/3/3 127/3/3
f 130/3/3 128/3/3 129/3/3
f 131/3/3 128/3/3 130/3/3
f 134/3/3 133/3/3 132/3/3
f 135/3/3 133/3/3 134/3/3
f 136/3/4 137/3/4 138/3/4
f 138/3/4 137/3/4 139/3/4
f 140/3/4 141/3/4 142/3/4
f 142/3/4 141/3/4 143/3/4
f 144/3/4 145/3/4 147/3/4
f 145/3/4 146/3/4 147/3/4
f 147/3/4 146/3/4 148/3/4
f 148/3/4 146/3/4 149/3/4
f 150/3/4 151/3/4 152/3/4
f 152/3/4 151/3/4 153/3/4
f 153/3/4 151/3/4 154/3/4
f 153/3/4 154/3/4 156/3/4
f 154/3/4 155/3/4 156/3/4
f 156/3/4 155/3/4 157/3/4
f 153/3/4 156/3/4 159/3/4
f 158/3/4 159/3/4 160/3/4
f 159/3/4 156/3/4 161/3/4
f 160/3/4 159/3/4 161/3/4
f 161/3/4 156/3/4 163/3/4
f 162/3/4 163/3/4 164/3/4
f 163/3/4 156/3/4 165/3/4
f 164/3/4 163/3/4 165/3/4
f 165/3/4 156/3/4 167/3/4
f 166/1/4 167/1/4 169/1/4
f 169/1/4 167/1/4 170/1/4
f 168/1/4 169/1/4 170/1/4
f 167/3/4 156/3/4 171/3/4
f 170/1/4 167/1/4 171/1/4
f 171/3/4 156/3/4 172/3/4
f 168/1/4 170/1/4 173/1/4
f 173/1/4 170/1/4 174/1/4
f 168/1/4 173/1/4 175/1/4
f 175/1/4 173/1/4 176/1/4
f 181/3/5 178/3/5 177/3/5
f 182/3/5 178/3/5 181/3/5
f 183/1/5 180/1/5 179/1/5
f 184/1/5 180/1/5 183/1/5
f 187/1/5 186/1/5 185/1/5
f 188/1/5 186/1/5 187/1/5
f 191/3/5 190/3/5 189/3/5
f 192/3/5 190/3/5 191/3/5
f 197/3/5 194/3/5 193/3/5
f 198/3/5 196/3/5 195/3/5
f 199/3/5 197/3/5 193/3/5
f 200/3/5 196/3/5 198/3/5
f 201/3/5 199/3/5 193/3/5
f 202/3/5 199/3/5 201/3/5
f 203/3/5 196/3/5 200/3/5
f 204/3/5 196/3/5 203/3/5
f 211/3/5 208/3/5 207/3/5
f 212/3/5 208/3/5 211/3/5
f 215/3/5 206/3/5 205/3/5
f 216/3/5 206/3/5 215/3/5
f 217/3/5 214/3/5 213/3/5
f 218/3/5 214/3/5 217/3/5
f 219/3/5 210/3/5 209/3/5
f 220/3/5 210/3/5 219/3/5
f 223/3/5 222/3/5 221/3/5
f 224/3/5 222/3/5 223/3/5
f 227/3/5 226/3/5 225/3/5
f 228/3/5 226/3/5 227/3/5
f 229/1/6 230/1/6 231/1/6
f 231/1/6 230/1/6 232/1/6
f 233/1/6 234/1/6 235/1/6
f 235/1/6 234/1/6 236/1/6
f 237/3/6 238/3/6 239/3/6
f 239/3/6 238/3/6 240/3/6
f 241/3/6 242/3/6 245/3/6
f 245/3/6 242/3/6 246/3/6
f 243/3/6 244/3/6 247/3/6
f 247/3/6 244/3/6 248/3/6
f 249/3/6 250/3/6 251/3/6
f 251/3/6 250/3/6 252/3/6
f 253/3/6 254/3/6 255/3/6
f 255/3/6 254/3/6 256/3/6
