# MagicaVoxel @ Ephtracy

# group
o 

# material
mtllib Портал.mtl
usemtl palette

# normals
vn -1 0 0
vn 1 0 0
vn 0 0 1
vn 0 0 -1
vn 0 -1 0
vn 0 1 0

# texcoords
vt 0.185547 0.5
vt 0.529297 0.5
vt 0.798828 0.5
vt 0.806641 0.5
vt 0.822266 0.5

# verts
v -0.7 0 1.3
v -0.7 0 -1
v -0.7 0.1 1.3
v -0.7 0.1 -1
v -0.6 0.1 1.2
v -0.6 0.1 -0.9
v -0.6 0.2 1.2
v -0.6 0.2 -0.9
v -0.5 0.2 1.1
v -0.5 0.2 -0.8
v -0.5 0.3 1.1
v -0.5 0.3 -0.8
v -0.1 0.3 1
v -0.1 0.3 -0.6
v -0.1 0.4 0.9
v -0.1 0.4 -0.5
v -0.1 0.5 0.8
v -0.1 0.5 -0.4
v -0.1 0.6 0.7
v -0.1 0.6 -0.3
v -0.1 0.7 0.6
v -0.1 0.7 -0.2
v -0.1 1.2 0.6
v -0.1 1.2 -0.2
v -0.1 1.3 0.7
v -0.1 1.3 -0.3
v -0.1 1.4 0.8
v -0.1 1.4 -0.4
v -0.1 1.5 0.9
v -0.1 1.5 -0.5
v -0.1 1.6 1
v -0.1 1.6 -0.6
v 0.1 0.3 1
v 0.1 0.3 -0.6
v 0.1 0.4 0.9
v 0.1 0.4 -0.5
v 0.1 0.5 0.8
v 0.1 0.5 -0.4
v 0.1 0.6 0.7
v 0.1 0.6 -0.3
v 0.1 0.7 0.6
v 0.1 0.7 -0.2
v 0.1 1.2 0.6
v 0.1 1.2 -0.2
v 0.1 1.3 0.7
v 0.1 1.3 -0.3
v 0.1 1.4 0.8
v 0.1 1.4 -0.4
v 0.1 1.5 0.9
v 0.1 1.5 -0.5
v 0.1 1.6 1
v 0.1 1.6 -0.6
v 0.5 0.2 1.1
v 0.5 0.2 -0.8
v 0.5 0.3 1.1
v 0.5 0.3 -0.8
v 0.6 0.1 1.2
v 0.6 0.1 -0.9
v 0.6 0.2 1.2
v 0.6 0.2 -0.9
v 0.7 0 1.3
v 0.7 0 -1
v 0.7 0.1 1.3
v 0.7 0.1 -1
v -0.7 0 1.3
v -0.7 0.1 1.3
v 0.7 0 1.3
v 0.7 0.1 1.3
v -0.6 0.1 1.2
v -0.6 0.2 1.2
v 0.6 0.1 1.2
v 0.6 0.2 1.2
v -0.5 0.2 1.1
v -0.5 0.3 1.1
v 0.5 0.2 1.1
v 0.5 0.3 1.1
v -0.1 0.3 1
v -0.1 1.6 1
v 0.1 0.3 1
v 0.1 1.6 1
v -0.1 0.3 -0.6
v -0.1 1.6 -0.6
v 0.1 0.3 -0.6
v 0.1 1.6 -0.6
v -0.5 0.2 -0.8
v -0.5 0.3 -0.8
v 0.5 0.2 -0.8
v 0.5 0.3 -0.8
v -0.6 0.1 -0.9
v -0.6 0.2 -0.9
v 0.6 0.1 -0.9
v 0.6 0.2 -0.9
v -0.7 0 -1
v -0.7 0.1 -1
v 0.7 0 -1
v 0.7 0.1 -1
v -0.7 0 1.3
v 0.7 0 1.3
v -0.7 0 -1
v 0.7 0 -1
v -0.7 0.1 1.3
v 0.7 0.1 1.3
v -0.6 0.1 1.2
v 0.6 0.1 1.2
v -0.6 0.1 -0.9
v 0.6 0.1 -0.9
v -0.7 0.1 -1
v 0.7 0.1 -1
v -0.6 0.2 1.2
v 0.6 0.2 1.2
v -0.5 0.2 1.1
v 0.5 0.2 1.1
v -0.5 0.2 -0.8
v 0.5 0.2 -0.8
v -0.6 0.2 -0.9
v 0.6 0.2 -0.9
v -0.5 0.3 1.1
v 0.5 0.3 1.1
v -0.1 0.3 1
v 0.1 0.3 1
v -0.1 0.3 -0.6
v 0.1 0.3 -0.6
v -0.5 0.3 -0.8
v 0.5 0.3 -0.8
v -0.1 1.6 1
v 0.1 1.6 1
v -0.1 1.6 -0.6
v 0.1 1.6 -0.6

# faces
f 3/1/1 2/1/1 1/1/1
f 4/1/1 2/1/1 3/1/1
f 7/1/1 6/1/1 5/1/1
f 8/1/1 6/1/1 7/1/1
f 11/1/1 10/1/1 9/1/1
f 12/1/1 10/1/1 11/1/1
f 15/1/1 14/1/1 13/1/1
f 16/1/1 14/1/1 15/1/1
f 17/3/1 16/3/1 15/3/1
f 18/3/1 16/3/1 17/3/1
f 19/4/1 18/4/1 17/4/1
f 20/4/1 18/4/1 19/4/1
f 21/2/1 20/2/1 19/2/1
f 22/2/1 20/2/1 21/2/1
f 23/2/1 21/2/1 19/2/1
f 23/5/1 22/5/1 21/5/1
f 24/2/1 20/2/1 22/2/1
f 24/5/1 22/5/1 23/5/1
f 25/4/1 19/4/1 17/4/1
f 25/2/1 23/2/1 19/2/1
f 25/2/1 24/2/1 23/2/1
f 26/2/1 20/2/1 24/2/1
f 26/2/1 24/2/1 25/2/1
f 26/4/1 18/4/1 20/4/1
f 27/3/1 17/3/1 15/3/1
f 27/4/1 25/4/1 17/4/1
f 27/4/1 26/4/1 25/4/1
f 28/4/1 18/4/1 26/4/1
f 28/4/1 26/4/1 27/4/1
f 28/3/1 16/3/1 18/3/1
f 29/1/1 15/1/1 13/1/1
f 29/3/1 27/3/1 15/3/1
f 29/3/1 28/3/1 27/3/1
f 30/3/1 16/3/1 28/3/1
f 30/3/1 28/3/1 29/3/1
f 30/1/1 14/1/1 16/1/1
f 31/1/1 29/1/1 13/1/1
f 31/1/1 30/1/1 29/1/1
f 32/1/1 14/1/1 30/1/1
f 32/1/1 30/1/1 31/1/1
f 33/1/2 34/1/2 35/1/2
f 35/1/2 34/1/2 36/1/2
f 35/3/2 36/3/2 37/3/2
f 37/3/2 36/3/2 38/3/2
f 37/4/2 38/4/2 39/4/2
f 39/4/2 38/4/2 40/4/2
f 39/2/2 40/2/2 41/2/2
f 41/2/2 40/2/2 42/2/2
f 39/2/2 41/2/2 43/2/2
f 41/5/2 42/5/2 43/5/2
f 42/2/2 40/2/2 44/2/2
f 43/5/2 42/5/2 44/5/2
f 37/4/2 39/4/2 45/4/2
f 39/2/2 43/2/2 45/2/2
f 43/2/2 44/2/2 45/2/2
f 44/2/2 40/2/2 46/2/2
f 45/2/2 44/2/2 46/2/2
f 40/4/2 38/4/2 46/4/2
f 35/3/2 37/3/2 47/3/2
f 37/4/2 45/4/2 47/4/2
f 45/4/2 46/4/2 47/4/2
f 46/4/2 38/4/2 48/4/2
f 47/4/2 46/4/2 48/4/2
f 38/3/2 36/3/2 48/3/2
f 33/1/2 35/1/2 49/1/2
f 35/3/2 47/3/2 49/3/2
f 47/3/2 48/3/2 49/3/2
f 48/3/2 36/3/2 50/3/2
f 49/3/2 48/3/2 50/3/2
f 36/1/2 34/1/2 50/1/2
f 33/1/2 49/1/2 51/1/2
f 49/1/2 50/1/2 51/1/2
f 50/1/2 34/1/2 52/1/2
f 51/1/2 50/1/2 52/1/2
f 53/1/2 54/1/2 55/1/2
f 55/1/2 54/1/2 56/1/2
f 57/1/2 58/1/2 59/1/2
f 59/1/2 58/1/2 60/1/2
f 61/1/2 62/1/2 63/1/2
f 63/1/2 62/1/2 64/1/2
f 67/1/3 66/1/3 65/1/3
f 68/1/3 66/1/3 67/1/3
f 71/1/3 70/1/3 69/1/3
f 72/1/3 70/1/3 71/1/3
f 75/1/3 74/1/3 73/1/3
f 76/1/3 74/1/3 75/1/3
f 79/1/3 78/1/3 77/1/3
f 80/1/3 78/1/3 79/1/3
f 81/1/4 82/1/4 83/1/4
f 83/1/4 82/1/4 84/1/4
f 85/1/4 86/1/4 87/1/4
f 87/1/4 86/1/4 88/1/4
f 89/1/4 90/1/4 91/1/4
f 91/1/4 90/1/4 92/1/4
f 93/1/4 94/1/4 95/1/4
f 95/1/4 94/1/4 96/1/4
f 99/1/5 98/1/5 97/1/5
f 100/1/5 98/1/5 99/1/5
f 101/1/6 102/1/6 103/1/6
f 103/1/6 102/1/6 104/1/6
f 101/1/6 103/1/6 105/1/6
f 104/1/6 102/1/6 106/1/6
f 101/1/6 105/1/6 107/1/6
f 105/1/6 106/1/6 107/1/6
f 106/1/6 102/1/6 108/1/6
f 107/1/6 106/1/6 108/1/6
f 109/1/6 110/1/6 111/1/6
f 111/1/6 110/1/6 112/1/6
f 109/1/6 111/1/6 113/1/6
f 112/1/6 110/1/6 114/1/6
f 109/1/6 113/1/6 115/1/6
f 113/1/6 114/1/6 115/1/6
f 114/1/6 110/1/6 116/1/6
f 115/1/6 114/1/6 116/1/6
f 117/1/6 118/1/6 119/1/6
f 119/1/6 118/1/6 120/1/6
f 117/1/6 119/1/6 121/1/6
f 120/1/6 118/1/6 122/1/6
f 117/1/6 121/1/6 123/1/6
f 121/1/6 122/1/6 123/1/6
f 122/1/6 118/1/6 124/1/6
f 123/1/6 122/1/6 124/1/6
f 125/1/6 126/1/6 127/1/6
f 127/1/6 126/1/6 128/1/6
