# MagicaVoxel @ Ephtracy

# group
o 

# material
mtllib раскладная турелька-1.mtl
usemtl palette

# normals
vn -1 0 0
vn 1 0 0
vn 0 0 1
vn 0 0 -1
vn 0 -1 0
vn 0 1 0

# texcoords
vt 0.912109 0.5
vt 0.958984 0.5
vt 0.994141 0.5

# verts
v -0.8 0 0.0999999
v -0.8 0 -0.1
v -0.8 0.3 0.0999999
v -0.8 0.3 -0.1
v -0.7 0 0.9
v -0.7 0 0.0999999
v -0.7 0 -0.1
v -0.7 0 -1.1
v -0.7 0.2 0.9
v -0.7 0.2 0.0999999
v -0.7 0.2 -0.1
v -0.7 0.2 -1.1
v 0.1 0 1
v 0.1 0 0.9
v 0.1 0 -1.1
v 0.1 0 -1.2
v 0.1 0.2 0.9
v 0.1 0.2 0.8
v 0.1 0.2 -1
v 0.1 0.2 -1.1
v 0.1 0.3 1
v 0.1 0.3 0.8
v 0.1 0.3 -1
v 0.1 0.3 -1.2
v 0.2 0.2 0.0999999
v 0.2 0.2 -1.19209e-07
v 0.2 0.2 -0.1
v 0.2 0.2 -0.2
v 0.2 0.3 0.0999999
v 0.2 0.3 -1.19209e-07
v 0.2 0.3 -0.1
v 0.2 0.3 -0.2
v 1.3 0.2 -1.19209e-07
v 1.3 0.2 -0.2
v 1.3 0.3 -1.19209e-07
v 1.3 0.3 -0.2
v -0.6 0.2 0.0999999
v -0.6 0.2 -0.1
v -0.6 0.3 0.0999999
v -0.6 0.3 -0.1
v 0.3 0 1
v 0.3 0 0.9
v 0.3 0 -1.1
v 0.3 0 -1.2
v 0.3 0.2 0.9
v 0.3 0.2 0.8
v 0.3 0.2 0.0999999
v 0.3 0.2 -1.19209e-07
v 0.3 0.2 -0.1
v 0.3 0.2 -0.2
v 0.3 0.2 -1
v 0.3 0.2 -1.1
v 0.3 0.3 1
v 0.3 0.3 0.8
v 0.3 0.3 0.0999999
v 0.3 0.3 -1.19209e-07
v 0.3 0.3 -0.1
v 0.3 0.3 -0.2
v 0.3 0.3 -1
v 0.3 0.3 -1.2
v 1.4 0 0.9
v 1.4 0 -1.19209e-07
v 1.4 0 -0.2
v 1.4 0 -1.1
v 1.4 0.2 0.9
v 1.4 0.2 -1.19209e-07
v 1.4 0.2 -0.2
v 1.4 0.2 -1.1
v 1.5 0 -1.19209e-07
v 1.5 0 -0.2
v 1.5 0.3 -1.19209e-07
v 1.5 0.3 -0.2
v 0.1 0 1
v 0.1 0.3 1
v 0.3 0 1
v 0.3 0.3 1
v -0.7 0 0.9
v -0.7 0.2 0.9
v 0.1 0 0.9
v 0.1 0.2 0.9
v 0.3 0 0.9
v 0.3 0.2 0.9
v 1.4 0 0.9
v 1.4 0.2 0.9
v -0.8 0 0.0999999
v -0.8 0.3 0.0999999
v -0.7 0 0.0999999
v -0.7 0.2 0.0999999
v -0.6 0.2 0.0999999
v -0.6 0.3 0.0999999
v 0.2 0.2 0.0999999
v 0.2 0.3 0.0999999
v 0.3 0.2 0.0999999
v 0.3 0.3 0.0999999
v 1.3 0.2 -1.19209e-07
v 1.3 0.3 -1.19209e-07
v 1.4 0 -1.19209e-07
v 1.4 0.2 -1.19209e-07
v 1.5 0 -1.19209e-07
v 1.5 0.3 -1.19209e-07
v 0.2 0.2 -0.1
v 0.2 0.3 -0.1
v 0.3 0.2 -0.1
v 0.3 0.3 -0.1
v 0.1 0.2 -1
v 0.1 0.3 -1
v 0.3 0.2 -1
v 0.3 0.3 -1
v 0.1 0.2 0.8
v 0.1 0.3 0.8
v 0.3 0.2 0.8
v 0.3 0.3 0.8
v 0.2 0.2 -1.19209e-07
v 0.2 0.3 -1.19209e-07
v 0.3 0.2 -1.19209e-07
v 0.3 0.3 -1.19209e-07
v -0.8 0 -0.1
v -0.8 0.3 -0.1
v -0.7 0 -0.1
v -0.7 0.2 -0.1
v -0.6 0.2 -0.1
v -0.6 0.3 -0.1
v 0.2 0.2 -0.2
v 0.2 0.3 -0.2
v 0.3 0.2 -0.2
v 0.3 0.3 -0.2
v 1.3 0.2 -0.2
v 1.3 0.3 -0.2
v 1.4 0 -0.2
v 1.4 0.2 -0.2
v 1.5 0 -0.2
v 1.5 0.3 -0.2
v -0.7 0 -1.1
v -0.7 0.2 -1.1
v 0.1 0 -1.1
v 0.1 0.2 -1.1
v 0.3 0 -1.1
v 0.3 0.2 -1.1
v 1.4 0 -1.1
v 1.4 0.2 -1.1
v 0.1 0 -1.2
v 0.1 0.3 -1.2
v 0.3 0 -1.2
v 0.3 0.3 -1.2
v 0.1 0 1
v 0.3 0 1
v -0.7 0 0.9
v 0.1 0 0.9
v 0.3 0 0.9
v 1.4 0 0.9
v -0.8 0 0.0999999
v -0.7 0 0.0999999
v 1.4 0 -1.19209e-07
v 1.5 0 -1.19209e-07
v -0.8 0 -0.1
v -0.7 0 -0.1
v 1.4 0 -0.2
v 1.5 0 -0.2
v -0.7 0 -1.1
v 0.1 0 -1.1
v 0.3 0 -1.1
v 1.4 0 -1.1
v 0.1 0 -1.2
v 0.3 0 -1.2
v -0.7 0.2 0.9
v 0.1 0.2 0.9
v 0.3 0.2 0.9
v 1.4 0.2 0.9
v 0.1 0.2 0.8
v 0.3 0.2 0.8
v -0.7 0.2 0.0999999
v -0.6 0.2 0.0999999
v 0.2 0.2 0.0999999
v 0.3 0.2 0.0999999
v 0.2 0.2 -1.19209e-07
v 0.3 0.2 -1.19209e-07
v 1.3 0.2 -1.19209e-07
v 1.4 0.2 -1.19209e-07
v -0.7 0.2 -0.1
v -0.6 0.2 -0.1
v 0.2 0.2 -0.1
v 0.3 0.2 -0.1
v 0.2 0.2 -0.2
v 0.3 0.2 -0.2
v 1.3 0.2 -0.2
v 1.4 0.2 -0.2
v 0.1 0.2 -1
v 0.3 0.2 -1
v -0.7 0.2 -1.1
v 0.1 0.2 -1.1
v 0.3 0.2 -1.1
v 1.4 0.2 -1.1
v 0.1 0.3 1
v 0.3 0.3 1
v 0.1 0.3 0.8
v 0.3 0.3 0.8
v -0.8 0.3 0.0999999
v -0.6 0.3 0.0999999
v 0.2 0.3 0.0999999
v 0.3 0.3 0.0999999
v 0.2 0.3 -1.19209e-07
v 0.3 0.3 -1.19209e-07
v 1.3 0.3 -1.19209e-07
v 1.5 0.3 -1.19209e-07
v -0.8 0.3 -0.1
v -0.6 0.3 -0.1
v 0.2 0.3 -0.1
v 0.3 0.3 -0.1
v 0.2 0.3 -0.2
v 0.3 0.3 -0.2
v 1.3 0.3 -0.2
v 1.5 0.3 -0.2
v 0.1 0.3 -1
v 0.3 0.3 -1
v 0.1 0.3 -1.2
v 0.3 0.3 -1.2

# faces
f 3/3/1 2/3/1 1/3/1
f 4/3/1 2/3/1 3/3/1
f 9/1/1 6/1/1 5/1/1
f 10/1/1 6/1/1 9/1/1
f 11/1/1 8/1/1 7/1/1
f 12/1/1 8/1/1 11/1/1
f 17/3/1 14/3/1 13/3/1
f 20/3/1 16/3/1 15/3/1
f 21/3/1 18/3/1 17/3/1
f 21/3/1 17/3/1 13/3/1
f 22/3/1 18/3/1 21/3/1
f 23/3/1 20/3/1 19/3/1
f 24/3/1 16/3/1 20/3/1
f 24/3/1 20/3/1 23/3/1
f 29/2/1 26/2/1 25/2/1
f 30/2/1 26/2/1 29/2/1
f 31/2/1 28/2/1 27/2/1
f 32/2/1 28/2/1 31/2/1
f 35/3/1 34/3/1 33/3/1
f 36/3/1 34/3/1 35/3/1
f 37/3/2 38/3/2 39/3/2
f 39/3/2 38/3/2 40/3/2
f 41/3/2 42/3/2 45/3/2
f 43/3/2 44/3/2 52/3/2
f 41/3/2 45/3/2 53/3/2
f 45/3/2 46/3/2 53/3/2
f 53/3/2 46/3/2 54/3/2
f 47/2/2 48/2/2 55/2/2
f 55/2/2 48/2/2 56/2/2
f 49/2/2 50/2/2 57/2/2
f 57/2/2 50/2/2 58/2/2
f 51/3/2 52/3/2 59/3/2
f 52/3/2 44/3/2 60/3/2
f 59/3/2 52/3/2 60/3/2
f 61/1/2 62/1/2 65/1/2
f 65/1/2 62/1/2 66/1/2
f 63/1/2 64/1/2 67/1/2
f 67/1/2 64/1/2 68/1/2
f 69/3/2 70/3/2 71/3/2
f 71/3/2 70/3/2 72/3/2
f 75/3/3 74/3/3 73/3/3
f 76/3/3 74/3/3 75/3/3
f 79/1/3 78/1/3 77/1/3
f 80/1/3 78/1/3 79/1/3
f 83/1/3 82/1/3 81/1/3
f 84/1/3 82/1/3 83/1/3
f 87/3/3 86/3/3 85/3/3
f 88/3/3 86/3/3 87/3/3
f 89/3/3 86/3/3 88/3/3
f 90/3/3 86/3/3 89/3/3
f 93/2/3 92/2/3 91/2/3
f 94/2/3 92/2/3 93/2/3
f 98/3/3 96/3/3 95/3/3
f 99/3/3 98/3/3 97/3/3
f 100/3/3 96/3/3 98/3/3
f 100/3/3 98/3/3 99/3/3
f 103/2/3 102/2/3 101/2/3
f 104/2/3 102/2/3 103/2/3
f 107/3/3 106/3/3 105/3/3
f 108/3/3 106/3/3 107/3/3
f 109/3/4 110/3/4 111/3/4
f 111/3/4 110/3/4 112/3/4
f 113/2/4 114/2/4 115/2/4
f 115/2/4 114/2/4 116/2/4
f 117/3/4 118/3/4 119/3/4
f 119/3/4 118/3/4 120/3/4
f 120/3/4 118/3/4 121/3/4
f 121/3/4 118/3/4 122/3/4
f 123/2/4 124/2/4 125/2/4
f 125/2/4 124/2/4 126/2/4
f 127/3/4 128/3/4 130/3/4
f 129/3/4 130/3/4 131/3/4
f 130/3/4 128/3/4 132/3/4
f 131/3/4 130/3/4 132/3/4
f 133/1/4 134/1/4 135/1/4
f 135/1/4 134/1/4 136/1/4
f 137/1/4 138/1/4 139/1/4
f 139/1/4 138/1/4 140/1/4
f 141/3/4 142/3/4 143/3/4
f 143/3/4 142/3/4 144/3/4
f 148/3/5 146/3/5 145/3/5
f 149/3/5 146/3/5 148/3/5
f 152/1/5 148/1/5 147/1/5
f 152/1/5 150/1/5 149/1/5
f 152/1/5 149/1/5 148/1/5
f 153/1/5 150/1/5 152/1/5
f 155/3/5 152/3/5 151/3/5
f 156/1/5 153/1/5 152/1/5
f 156/3/5 152/3/5 155/3/5
f 157/3/5 154/3/5 153/3/5
f 157/1/5 153/1/5 156/1/5
f 158/3/5 154/3/5 157/3/5
f 159/1/5 157/1/5 156/1/5
f 160/1/5 157/1/5 159/1/5
f 161/1/5 157/1/5 160/1/5
f 162/1/5 157/1/5 161/1/5
f 163/3/5 161/3/5 160/3/5
f 164/3/5 161/3/5 163/3/5
f 165/1/6 166/1/6 169/1/6
f 167/1/6 168/1/6 170/1/6
f 165/1/6 169/1/6 171/1/6
f 169/1/6 170/1/6 171/1/6
f 171/1/6 170/1/6 172/1/6
f 172/1/6 170/1/6 173/1/6
f 170/1/6 168/1/6 174/1/6
f 173/1/6 170/1/6 174/1/6
f 172/1/6 173/1/6 175/1/6
f 174/1/6 168/1/6 176/1/6
f 176/1/6 168/1/6 177/1/6
f 177/1/6 168/1/6 178/1/6
f 172/1/6 175/1/6 180/1/6
f 175/1/6 176/1/6 180/1/6
f 176/1/6 177/1/6 180/1/6
f 180/1/6 177/1/6 181/1/6
f 181/1/6 177/1/6 182/1/6
f 179/1/6 180/1/6 183/1/6
f 180/1/6 181/1/6 183/1/6
f 182/1/6 177/1/6 184/1/6
f 184/1/6 177/1/6 185/1/6
f 179/1/6 183/1/6 187/1/6
f 185/1/6 186/1/6 187/1/6
f 184/1/6 185/1/6 187/1/6
f 183/1/6 184/1/6 187/1/6
f 187/1/6 186/1/6 188/1/6
f 179/1/6 187/1/6 189/1/6
f 189/1/6 187/1/6 190/1/6
f 188/1/6 186/1/6 191/1/6
f 191/1/6 186/1/6 192/1/6
f 193/3/6 194/3/6 195/3/6
f 195/3/6 194/3/6 196/3/6
f 199/2/6 200/2/6 201/2/6
f 201/2/6 200/2/6 202/2/6
f 197/3/6 198/3/6 205/3/6
f 205/3/6 198/3/6 206/3/6
f 207/2/6 208/2/6 209/2/6
f 209/2/6 208/2/6 210/2/6
f 203/3/6 204/3/6 211/3/6
f 211/3/6 204/3/6 212/3/6
f 213/3/6 214/3/6 215/3/6
f 215/3/6 214/3/6 216/3/6
