# MagicaVoxel @ Ephtracy

# group
o 

# material
mtllib сТАТУЯУТОЧКА.mtl
usemtl palette

# normals
vn -1 0 0
vn 1 0 0
vn 0 0 1
vn 0 0 -1
vn 0 -1 0
vn 0 1 0

# texcoords
vt 0.978516 0.5
vt 0.982422 0.5
vt 0.990234 0.5

# verts
v -1.2 0 1.4
v -1.2 0 -1.2
v -1.2 0.1 1.4
v -1.2 0.1 -1.2
v -1.1 0.1 1.3
v -1.1 0.1 -1.1
v -1.1 0.2 1.3
v -1.1 0.2 -1.1
v -1 0.2 1.2
v -1 0.2 -1
v -1 0.3 1.2
v -1 0.3 -1
v -0.6 0.3 0.6
v -0.6 0.3 -0.3
v -0.6 1.3 0.6
v -0.6 1.3 -0.3
v -0.4 1.3 0.3
v -0.4 1.3 0.1
v -0.4 1.4 0.3
v -0.4 1.4 0.2
v -0.4 1.7 0.6
v -0.4 1.7 0.2
v -0.4 1.7 0.1
v -0.4 1.7 -0.3
v -0.4 1.8 -0.3
v -0.4 1.8 -0.4
v -0.4 2 0.3
v -0.4 2 0
v -0.4 2.1 0
v -0.4 2.1 -0.4
v -0.4 2.2 0.6
v -0.4 2.2 0.3
v 0.1 1.3 0.3
v 0.1 1.3 0.1
v 0.1 1.4 0.3
v 0.1 1.4 0.2
v 0.1 1.6 0.2
v 0.1 1.6 0.1
v -0.3 1.3 0.3
v -0.3 1.3 0.1
v -0.3 1.4 0.3
v -0.3 1.4 0.2
v -0.3 1.6 0.2
v -0.3 1.6 0.1
v 0.2 1.3 0.3
v 0.2 1.3 0.1
v 0.2 1.4 0.3
v 0.2 1.4 0.2
v 0.2 1.7 0.6
v 0.2 1.7 0.2
v 0.2 1.7 0.1
v 0.2 1.7 -0.3
v 0.2 1.8 -0.3
v 0.2 1.8 -0.4
v 0.2 2 0.3
v 0.2 2 0
v 0.2 2.1 0
v 0.2 2.1 -0.4
v 0.2 2.2 0.6
v 0.2 2.2 0.3
v 0.4 0.3 0.6
v 0.4 0.3 -0.3
v 0.4 1.3 0.6
v 0.4 1.3 -0.3
v 1 0.2 1.2
v 1 0.2 -1
v 1 0.3 1.2
v 1 0.3 -1
v 1.1 0.1 1.3
v 1.1 0.1 -1.1
v 1.1 0.2 1.3
v 1.1 0.2 -1.1
v 1.2 0 1.4
v 1.2 0 -1.2
v 1.2 0.1 1.4
v 1.2 0.1 -1.2
v -1.2 0 1.4
v -1.2 0.1 1.4
v 1.2 0 1.4
v 1.2 0.1 1.4
v -1.1 0.1 1.3
v -1.1 0.2 1.3
v 1.1 0.1 1.3
v 1.1 0.2 1.3
v -1 0.2 1.2
v -1 0.3 1.2
v 1 0.2 1.2
v 1 0.3 1.2
v -0.6 0.3 0.6
v -0.6 1.3 0.6
v -0.4 1.7 0.6
v -0.4 2.2 0.6
v -0.3 2 0.6
v -0.3 2.1 0.6
v -0.2 2 0.6
v -0.2 2.1 0.6
v 1.19209e-07 2 0.6
v 1.19209e-07 2.1 0.6
v 0.1 2 0.6
v 0.1 2.1 0.6
v 0.2 1.7 0.6
v 0.2 2.2 0.6
v 0.4 0.3 0.6
v 0.4 1.3 0.6
v -0.4 1.3 0.3
v -0.4 1.4 0.3
v -0.3 1.3 0.3
v -0.3 1.4 0.3
v 0.1 1.3 0.3
v 0.1 1.4 0.3
v 0.2 1.3 0.3
v 0.2 1.4 0.3
v -0.4 1.4 0.2
v -0.4 1.7 0.2
v -0.3 1.4 0.2
v -0.3 1.6 0.2
v 0.1 1.4 0.2
v 0.1 1.6 0.2
v 0.2 1.4 0.2
v 0.2 1.7 0.2
v -0.4 2 0
v -0.4 2.1 0
v 0.2 2 0
v 0.2 2.1 0
v -0.4 2 0.3
v -0.4 2.2 0.3
v 0.2 2 0.3
v 0.2 2.2 0.3
v -0.4 1.3 0.1
v -0.4 1.7 0.1
v -0.3 1.3 0.1
v -0.3 1.6 0.1
v 0.1 1.3 0.1
v 0.1 1.6 0.1
v 0.2 1.3 0.1
v 0.2 1.7 0.1
v -0.6 0.3 -0.3
v -0.6 1.3 -0.3
v -0.4 1.7 -0.3
v -0.4 1.8 -0.3
v 0.2 1.7 -0.3
v 0.2 1.8 -0.3
v 0.4 0.3 -0.3
v 0.4 1.3 -0.3
v -0.4 1.8 -0.4
v -0.4 2.1 -0.4
v 0.2 1.8 -0.4
v 0.2 2.1 -0.4
v -1 0.2 -1
v -1 0.3 -1
v 1 0.2 -1
v 1 0.3 -1
v -1.1 0.1 -1.1
v -1.1 0.2 -1.1
v 1.1 0.1 -1.1
v 1.1 0.2 -1.1
v -1.2 0 -1.2
v -1.2 0.1 -1.2
v 1.2 0 -1.2
v 1.2 0.1 -1.2
v -1.2 0 1.4
v 1.2 0 1.4
v -1.2 0 -1.2
v 1.2 0 -1.2
v -0.3 1.6 0.2
v 0.1 1.6 0.2
v -0.3 1.6 0.1
v 0.1 1.6 0.1
v -0.4 1.7 0.6
v 0.2 1.7 0.6
v -0.4 1.7 0.2
v 0.2 1.7 0.2
v -0.4 1.7 0.1
v 0.2 1.7 0.1
v -0.4 1.7 -0.3
v 0.2 1.7 -0.3
v -0.4 1.8 -0.3
v 0.2 1.8 -0.3
v -0.4 1.8 -0.4
v 0.2 1.8 -0.4
v -1.2 0.1 1.4
v 1.2 0.1 1.4
v -1.1 0.1 1.3
v 1.1 0.1 1.3
v -1.1 0.1 -1.1
v 1.1 0.1 -1.1
v -1.2 0.1 -1.2
v 1.2 0.1 -1.2
v -1.1 0.2 1.3
v 1.1 0.2 1.3
v -1 0.2 1.2
v 1 0.2 1.2
v -1 0.2 -1
v 1 0.2 -1
v -1.1 0.2 -1.1
v 1.1 0.2 -1.1
v -1 0.3 1.2
v 1 0.3 1.2
v -0.6 0.3 0.6
v 0.4 0.3 0.6
v -0.6 0.3 -0.3
v 0.4 0.3 -0.3
v -1 0.3 -1
v 1 0.3 -1
v -0.6 1.3 0.6
v 0.4 1.3 0.6
v -0.4 1.3 0.3
v -0.3 1.3 0.3
v 0.1 1.3 0.3
v 0.2 1.3 0.3
v -0.4 1.3 0.1
v -0.3 1.3 0.1
v 0.1 1.3 0.1
v 0.2 1.3 0.1
v -0.6 1.3 -0.3
v 0.4 1.3 -0.3
v -0.4 1.4 0.3
v -0.3 1.4 0.3
v 0.1 1.4 0.3
v 0.2 1.4 0.3
v -0.4 1.4 0.2
v -0.3 1.4 0.2
v 0.1 1.4 0.2
v 0.2 1.4 0.2
v -0.4 2 0.3
v 0.2 2 0.3
v -0.4 2 0
v 0.2 2 0
v -0.4 2.1 0
v 0.2 2.1 0
v -0.4 2.1 -0.4
v 0.2 2.1 -0.4
v -0.4 2.2 0.6
v 0.2 2.2 0.6
v -0.4 2.2 0.3
v 0.2 2.2 0.3

# faces
f 3/1/1 2/1/1 1/1/1
f 4/1/1 2/1/1 3/1/1
f 7/1/1 6/1/1 5/1/1
f 8/1/1 6/1/1 7/1/1
f 11/1/1 10/1/1 9/1/1
f 12/1/1 10/1/1 11/1/1
f 15/1/1 14/1/1 13/1/1
f 16/1/1 14/1/1 15/1/1
f 19/2/1 18/2/1 17/2/1
f 20/2/1 18/2/1 19/2/1
f 22/2/1 18/2/1 20/2/1
f 23/2/1 18/2/1 22/2/1
f 25/2/1 22/2/1 21/2/1
f 25/2/1 24/2/1 23/2/1
f 25/2/1 23/2/1 22/2/1
f 27/2/1 25/2/1 21/2/1
f 27/2/1 26/2/1 25/2/1
f 28/2/1 26/2/1 27/2/1
f 29/2/1 26/2/1 28/2/1
f 30/2/1 26/2/1 29/2/1
f 31/2/1 27/2/1 21/2/1
f 32/2/1 27/2/1 31/2/1
f 35/2/1 34/2/1 33/2/1
f 36/2/1 34/2/1 35/2/1
f 37/2/1 34/2/1 36/2/1
f 38/2/1 34/2/1 37/2/1
f 39/2/2 40/2/2 41/2/2
f 41/2/2 40/2/2 42/2/2
f 42/2/2 40/2/2 43/2/2
f 43/2/2 40/2/2 44/2/2
f 45/2/2 46/2/2 47/2/2
f 47/2/2 46/2/2 48/2/2
f 48/2/2 46/2/2 50/2/2
f 50/2/2 46/2/2 51/2/2
f 49/2/2 50/2/2 53/2/2
f 51/2/2 52/2/2 53/2/2
f 50/2/2 51/2/2 53/2/2
f 49/2/2 53/2/2 55/2/2
f 53/2/2 54/2/2 55/2/2
f 55/2/2 54/2/2 56/2/2
f 56/2/2 54/2/2 57/2/2
f 57/2/2 54/2/2 58/2/2
f 49/2/2 55/2/2 59/2/2
f 59/2/2 55/2/2 60/2/2
f 61/1/2 62/1/2 63/1/2
f 63/1/2 62/1/2 64/1/2
f 65/1/2 66/1/2 67/1/2
f 67/1/2 66/1/2 68/1/2
f 69/1/2 70/1/2 71/1/2
f 71/1/2 70/1/2 72/1/2
f 73/1/2 74/1/2 75/1/2
f 75/1/2 74/1/2 76/1/2
f 79/1/3 78/1/3 77/1/3
f 80/1/3 78/1/3 79/1/3
f 83/1/3 82/1/3 81/1/3
f 84/1/3 82/1/3 83/1/3
f 87/1/3 86/1/3 85/1/3
f 88/1/3 86/1/3 87/1/3
f 93/2/3 92/2/3 91/2/3
f 94/2/3 92/2/3 93/2/3
f 95/2/3 93/2/3 91/2/3
f 95/3/3 94/3/3 93/3/3
f 96/2/3 92/2/3 94/2/3
f 96/3/3 94/3/3 95/3/3
f 97/2/3 95/2/3 91/2/3
f 97/2/3 96/2/3 95/2/3
f 98/2/3 92/2/3 96/2/3
f 98/2/3 96/2/3 97/2/3
f 99/2/3 97/2/3 91/2/3
f 99/3/3 98/3/3 97/3/3
f 100/2/3 92/2/3 98/2/3
f 100/3/3 98/3/3 99/3/3
f 101/2/3 99/2/3 91/2/3
f 101/2/3 100/2/3 99/2/3
f 102/2/3 92/2/3 100/2/3
f 102/2/3 100/2/3 101/2/3
f 103/1/3 90/1/3 89/1/3
f 104/1/3 90/1/3 103/1/3
f 107/2/3 106/2/3 105/2/3
f 108/2/3 106/2/3 107/2/3
f 111/2/3 110/2/3 109/2/3
f 112/2/3 110/2/3 111/2/3
f 115/2/3 114/2/3 113/2/3
f 116/2/3 114/2/3 115/2/3
f 118/2/3 114/2/3 116/2/3
f 119/2/3 118/2/3 117/2/3
f 120/2/3 114/2/3 118/2/3
f 120/2/3 118/2/3 119/2/3
f 123/2/3 122/2/3 121/2/3
f 124/2/3 122/2/3 123/2/3
f 125/2/4 126/2/4 127/2/4
f 127/2/4 126/2/4 128/2/4
f 129/2/4 130/2/4 131/2/4
f 131/2/4 130/2/4 132/2/4
f 132/2/4 130/2/4 134/2/4
f 133/2/4 134/2/4 135/2/4
f 134/2/4 130/2/4 136/2/4
f 135/2/4 134/2/4 136/2/4
f 139/2/4 140/2/4 141/2/4
f 141/2/4 140/2/4 142/2/4
f 137/1/4 138/1/4 143/1/4
f 143/1/4 138/1/4 144/1/4
f 145/2/4 146/2/4 147/2/4
f 147/2/4 146/2/4 148/2/4
f 149/1/4 150/1/4 151/1/4
f 151/1/4 150/1/4 152/1/4
f 153/1/4 154/1/4 155/1/4
f 155/1/4 154/1/4 156/1/4
f 157/1/4 158/1/4 159/1/4
f 159/1/4 158/1/4 160/1/4
f 163/1/5 162/1/5 161/1/5
f 164/1/5 162/1/5 163/1/5
f 167/2/5 166/2/5 165/2/5
f 168/2/5 166/2/5 167/2/5
f 171/2/5 170/2/5 169/2/5
f 172/2/5 170/2/5 171/2/5
f 175/2/5 174/2/5 173/2/5
f 176/2/5 174/2/5 175/2/5
f 179/2/5 178/2/5 177/2/5
f 180/2/5 178/2/5 179/2/5
f 181/1/6 182/1/6 183/1/6
f 183/1/6 182/1/6 184/1/6
f 181/1/6 183/1/6 185/1/6
f 184/1/6 182/1/6 186/1/6
f 181/1/6 185/1/6 187/1/6
f 185/1/6 186/1/6 187/1/6
f 186/1/6 182/1/6 188/1/6
f 187/1/6 186/1/6 188/1/6
f 189/1/6 190/1/6 191/1/6
f 191/1/6 190/1/6 192/1/6
f 189/1/6 191/1/6 193/1/6
f 192/1/6 190/1/6 194/1/6
f 189/1/6 193/1/6 195/1/6
f 193/1/6 194/1/6 195/1/6
f 194/1/6 190/1/6 196/1/6
f 195/1/6 194/1/6 196/1/6
f 197/1/6 198/1/6 199/1/6
f 199/1/6 198/1/6 200/1/6
f 197/1/6 199/1/6 201/1/6
f 200/1/6 198/1/6 202/1/6
f 197/1/6 201/1/6 203/1/6
f 201/1/6 202/1/6 203/1/6
f 202/1/6 198/1/6 204/1/6
f 203/1/6 202/1/6 204/1/6
f 205/1/6 206/1/6 207/1/6
f 207/1/6 206/1/6 208/1/6
f 208/1/6 206/1/6 209/1/6
f 209/1/6 206/1/6 210/1/6
f 205/1/6 207/1/6 211/1/6
f 208/1/6 209/1/6 212/1/6
f 212/1/6 209/1/6 213/1/6
f 210/1/6 206/1/6 214/1/6
f 212/1/6 213/1/6 215/1/6
f 213/1/6 214/1/6 215/1/6
f 205/1/6 211/1/6 215/1/6
f 211/1/6 212/1/6 215/1/6
f 214/1/6 206/1/6 216/1/6
f 215/1/6 214/1/6 216/1/6
f 217/2/6 218/2/6 221/2/6
f 221/2/6 218/2/6 222/2/6
f 219/2/6 220/2/6 223/2/6
f 223/2/6 220/2/6 224/2/6
f 225/2/6 226/2/6 227/2/6
f 227/2/6 226/2/6 228/2/6
f 229/2/6 230/2/6 231/2/6
f 231/2/6 230/2/6 232/2/6
f 233/2/6 234/2/6 235/2/6
f 235/2/6 234/2/6 236/2/6
