# MagicaVoxel @ Ephtracy

# group
o 

# material
mtllib ТОПОР-0.mtl
usemtl palette

# normals
vn -1 0 0
vn 1 0 0
vn 0 0 1
vn 0 0 -1
vn 0 -1 0
vn 0 1 0

# texcoords
vt 0.373047 0.5
vt 0.841797 0.5
vt 0.966797 0.5

# verts
v 0 2.6 3.3
v 0 2.6 3.2
v 0 2.7 3.3
v 0 2.7 3.2
v 2.4 0 2.8
v 2.4 0 2.4
v 2.4 3 2.8
v 2.4 3 2.4
v 2.5 2.7 2.4
v 2.5 2.7 2.1
v 2.5 2.7 2
v 2.5 2.7 1.9
v 2.5 3 2.5
v 2.5 3 2.4
v 2.5 3 2.1
v 2.5 3.1 2.4
v 2.5 3.1 2
v 2.5 3.2 2.5
v 2.5 3.2 1.9
v 0.1 2.6 3.3
v 0.1 2.6 3.2
v 0.1 2.7 3.3
v 0.1 2.7 3.2
v 2.6 2.7 2.4
v 2.6 2.7 2.1
v 2.6 2.7 2
v 2.6 2.7 1.9
v 2.6 3 2.5
v 2.6 3 2.4
v 2.6 3 2.1
v 2.6 3.1 2.4
v 2.6 3.1 2
v 2.6 3.2 2.5
v 2.6 3.2 1.9
v 2.7 0 2.8
v 2.7 0 2.4
v 2.7 3 2.8
v 2.7 3 2.4
v 0 2.6 3.3
v 0 2.7 3.3
v 0.1 2.6 3.3
v 0.1 2.7 3.3
v 2.4 0 2.8
v 2.4 3 2.8
v 2.7 0 2.8
v 2.7 3 2.8
v 2.5 3 2.5
v 2.5 3.2 2.5
v 2.6 3 2.5
v 2.6 3.2 2.5
v 0 2.6 3.2
v 0 2.7 3.2
v 0.1 2.6 3.2
v 0.1 2.7 3.2
v 2.4 0 2.4
v 2.4 3 2.4
v 2.5 2.7 2.4
v 2.5 3 2.4
v 2.6 2.7 2.4
v 2.6 3 2.4
v 2.7 0 2.4
v 2.7 3 2.4
v 2.5 2.7 1.9
v 2.5 3.2 1.9
v 2.6 2.7 1.9
v 2.6 3.2 1.9
v 2.4 0 2.8
v 2.7 0 2.8
v 2.4 0 2.4
v 2.7 0 2.4
v 0 2.6 3.3
v 0.1 2.6 3.3
v 0 2.6 3.2
v 0.1 2.6 3.2
v 2.5 2.7 2.4
v 2.6 2.7 2.4
v 2.5 2.7 2.1
v 2.6 2.7 2.1
v 2.5 2.7 2
v 2.6 2.7 2
v 2.5 2.7 1.9
v 2.6 2.7 1.9
v 0 2.7 3.3
v 0.1 2.7 3.3
v 0 2.7 3.2
v 0.1 2.7 3.2
v 2.4 3 2.8
v 2.7 3 2.8
v 2.5 3 2.5
v 2.6 3 2.5
v 2.4 3 2.4
v 2.5 3 2.4
v 2.6 3 2.4
v 2.7 3 2.4
v 2.5 3.2 2.5
v 2.6 3.2 2.5
v 2.5 3.2 1.9
v 2.6 3.2 1.9

# faces
f 3/2/1 2/2/1 1/2/1
f 4/2/1 2/2/1 3/2/1
f 7/1/1 6/1/1 5/1/1
f 8/1/1 6/1/1 7/1/1
f 14/2/1 10/2/1 9/2/1
f 15/3/1 11/3/1 10/3/1
f 15/2/1 10/2/1 14/2/1
f 16/2/1 14/2/1 13/2/1
f 16/3/1 15/3/1 14/3/1
f 17/2/1 12/2/1 11/2/1
f 17/3/1 15/3/1 16/3/1
f 17/3/1 11/3/1 15/3/1
f 18/2/1 16/2/1 13/2/1
f 18/2/1 17/2/1 16/2/1
f 19/2/1 12/2/1 17/2/1
f 19/2/1 17/2/1 18/2/1
f 20/2/2 21/2/2 22/2/2
f 22/2/2 21/2/2 23/2/2
f 24/2/2 25/2/2 29/2/2
f 25/3/2 26/3/2 30/3/2
f 29/2/2 25/2/2 30/2/2
f 28/2/2 29/2/2 31/2/2
f 29/3/2 30/3/2 31/3/2
f 26/2/2 27/2/2 32/2/2
f 31/3/2 30/3/2 32/3/2
f 30/3/2 26/3/2 32/3/2
f 28/2/2 31/2/2 33/2/2
f 31/2/2 32/2/2 33/2/2
f 32/2/2 27/2/2 34/2/2
f 33/2/2 32/2/2 34/2/2
f 35/1/2 36/1/2 37/1/2
f 37/1/2 36/1/2 38/1/2
f 41/2/3 40/2/3 39/2/3
f 42/2/3 40/2/3 41/2/3
f 45/1/3 44/1/3 43/1/3
f 46/1/3 44/1/3 45/1/3
f 49/2/3 48/2/3 47/2/3
f 50/2/3 48/2/3 49/2/3
f 51/2/4 52/2/4 53/2/4
f 53/2/4 52/2/4 54/2/4
f 55/1/4 56/1/4 57/1/4
f 57/1/4 56/1/4 58/1/4
f 55/1/4 57/1/4 59/1/4
f 55/1/4 59/1/4 61/1/4
f 59/1/4 60/1/4 61/1/4
f 61/1/4 60/1/4 62/1/4
f 63/2/4 64/2/4 65/2/4
f 65/2/4 64/2/4 66/2/4
f 69/1/5 68/1/5 67/1/5
f 70/1/5 68/1/5 69/1/5
f 73/2/5 72/2/5 71/2/5
f 74/2/5 72/2/5 73/2/5
f 77/2/5 76/2/5 75/2/5
f 78/2/5 76/2/5 77/2/5
f 79/3/5 78/3/5 77/3/5
f 80/3/5 78/3/5 79/3/5
f 81/2/5 80/2/5 79/2/5
f 82/2/5 80/2/5 81/2/5
f 83/2/6 84/2/6 85/2/6
f 85/2/6 84/2/6 86/2/6
f 87/1/6 88/1/6 89/1/6
f 89/1/6 88/1/6 90/1/6
f 87/1/6 89/1/6 91/1/6
f 91/1/6 89/1/6 92/1/6
f 90/1/6 88/1/6 93/1/6
f 93/1/6 88/1/6 94/1/6
f 95/2/6 96/2/6 97/2/6
f 97/2/6 96/2/6 98/2/6
