# MagicaVoxel @ Ephtracy

# group
o 

# material
mtllib турель.mtl
usemtl palette

# normals
vn -1 0 0
vn 1 0 0
vn 0 0 1
vn 0 0 -1
vn 0 -1 0
vn 0 1 0

# texcoords
vt 0.537109 0.5
vt 0.912109 0.5
vt 0.958984 0.5
vt 0.994141 0.5

# verts
v -1.6 2.4 0.4
v -1.6 2.4 0.3
v -1.6 2.4 0.0999999
v -1.6 2.4 -1.19209e-07
v -1.6 2.5 0.4
v -1.6 2.5 0.3
v -1.6 2.5 0.0999999
v -1.6 2.5 -1.19209e-07
v -1 0 0.3
v -1 0 0.2
v -1 0.2 0.3
v -1 0.2 0.2
v -0.9 0 1.1
v -0.9 0 0.3
v -0.9 0 0.2
v -0.9 0 -0.6
v -0.9 0.1 1.1
v -0.9 0.1 0.3
v -0.9 0.1 0.2
v -0.9 0.1 -0.6
v -0.8 0.1 1
v -0.8 0.1 0.3
v -0.8 0.1 0.2
v -0.8 0.1 -0.5
v -0.8 0.2 0.3
v -0.8 0.2 0.2
v -0.8 0.3 1
v -0.8 0.3 -0.5
v -0.6 0.3 0.9
v -0.6 0.3 -0.4
v -0.6 2.4 0.9
v -0.6 2.4 0.4
v -0.6 2.4 0.3
v -0.6 2.4 0.0999999
v -0.6 2.4 -1.19209e-07
v -0.6 2.4 -0.4
v -0.6 2.5 0.3
v -0.6 2.5 0.0999999
v -0.1 0 1.2
v -0.1 0 1.1
v -0.1 0.1 1.1
v -0.1 0.1 1
v -0.1 0.2 1.2
v -0.1 0.2 1
v -0.1 2.4 0.5
v -0.1 2.4 -1.19209e-07
v -0.1 2.6 0.4
v -0.1 2.6 0.3
v -0.1 2.6 0.2
v -0.1 2.6 0.0999999
v -0.1 2.7 0.4
v -0.1 2.7 0.3
v -0.1 2.7 0.2
v -0.1 2.7 0.0999999
v -0.1 2.8 0.5
v -0.1 2.8 -1.19209e-07
v 0 0 -0.6
v 0 0 -0.7
v 0 0.1 -0.5
v 0 0.1 -0.6
v 0 0.2 -0.5
v 0 0.2 -0.7
v -0.5 2.4 0.4
v -0.5 2.4 -1.19209e-07
v -0.5 2.5 0.4
v -0.5 2.5 -1.19209e-07
v 0 0 1.2
v 0 0 1.1
v 0 0.1 1.1
v 0 0.1 1
v 0 0.2 1.2
v 0 0.2 1
v 0.1 0 -0.6
v 0.1 0 -0.7
v 0.1 0.1 -0.5
v 0.1 0.1 -0.6
v 0.1 0.2 -0.5
v 0.1 0.2 -0.7
v 0.3 2.4 0.5
v 0.3 2.4 -1.19209e-07
v 0.3 2.8 0.5
v 0.3 2.8 -1.19209e-07
v 0.7 0.3 0.9
v 0.7 0.3 -0.4
v 0.7 2.4 0.9
v 0.7 2.4 -0.4
v 0.8 0.1 1
v 0.8 0.1 0.3
v 0.8 0.1 0.2
v 0.8 0.1 -0.5
v 0.8 0.2 0.3
v 0.8 0.2 0.2
v 0.8 0.3 1
v 0.8 0.3 -0.5
v 0.9 0 1.1
v 0.9 0 0.3
v 0.9 0 0.2
v 0.9 0 -0.6
v 0.9 0.1 1.1
v 0.9 0.1 0.3
v 0.9 0.1 0.2
v 0.9 0.1 -0.6
v 1 0 0.3
v 1 0 0.2
v 1 0.2 0.3
v 1 0.2 0.2
v -0.1 0 1.2
v -0.1 0.2 1.2
v 0 0 1.2
v 0 0.2 1.2
v -0.9 0 1.1
v -0.9 0.1 1.1
v -0.1 0 1.1
v -0.1 0.1 1.1
v 0 0 1.1
v 0 0.1 1.1
v 0.9 0 1.1
v 0.9 0.1 1.1
v -0.8 0.1 1
v -0.8 0.3 1
v -0.1 0.1 1
v -0.1 0.2 1
v 0 0.1 1
v 0 0.2 1
v 0.8 0.1 1
v 0.8 0.3 1
v -0.6 0.3 0.9
v -0.6 2.4 0.9
v 0.7 0.3 0.9
v 0.7 2.4 0.9
v -0.1 2.4 0.5
v -0.1 2.8 0.5
v 0.3 2.4 0.5
v 0.3 2.8 0.5
v -1.6 2.4 0.4
v -1.6 2.5 0.4
v -0.6 2.4 0.4
v -0.6 2.5 0.4
v -0.5 2.4 0.4
v -0.5 2.5 0.4
v -1 0 0.3
v -1 0.2 0.3
v -0.9 0 0.3
v -0.9 0.1 0.3
v -0.8 0.1 0.3
v -0.8 0.2 0.3
v 0.8 0.1 0.3
v 0.8 0.2 0.3
v 0.9 0 0.3
v 0.9 0.1 0.3
v 1 0 0.3
v 1 0.2 0.3
v -1.6 2.4 0.0999999
v -1.6 2.5 0.0999999
v -0.6 2.4 0.0999999
v -0.6 2.5 0.0999999
v -1.6 2.4 0.3
v -1.6 2.5 0.3
v -0.6 2.4 0.3
v -0.6 2.5 0.3
v -1 0 0.2
v -1 0.2 0.2
v -0.9 0 0.2
v -0.9 0.1 0.2
v -0.8 0.1 0.2
v -0.8 0.2 0.2
v 0.8 0.1 0.2
v 0.8 0.2 0.2
v 0.9 0 0.2
v 0.9 0.1 0.2
v 1 0 0.2
v 1 0.2 0.2
v -1.6 2.4 -1.19209e-07
v -1.6 2.5 -1.19209e-07
v -0.6 2.4 -1.19209e-07
v -0.6 2.5 -1.19209e-07
v -0.5 2.4 -1.19209e-07
v -0.5 2.5 -1.19209e-07
v -0.1 2.4 -1.19209e-07
v -0.1 2.8 -1.19209e-07
v 0.3 2.4 -1.19209e-07
v 0.3 2.8 -1.19209e-07
v -0.6 0.3 -0.4
v -0.6 2.4 -0.4
v 0.7 0.3 -0.4
v 0.7 2.4 -0.4
v -0.8 0.1 -0.5
v -0.8 0.3 -0.5
v 0 0.1 -0.5
v 0 0.2 -0.5
v 0.1 0.1 -0.5
v 0.1 0.2 -0.5
v 0.8 0.1 -0.5
v 0.8 0.3 -0.5
v -0.9 0 -0.6
v -0.9 0.1 -0.6
v 0 0 -0.6
v 0 0.1 -0.6
v 0.1 0 -0.6
v 0.1 0.1 -0.6
v 0.9 0 -0.6
v 0.9 0.1 -0.6
v 0 0 -0.7
v 0 0.2 -0.7
v 0.1 0 -0.7
v 0.1 0.2 -0.7
v -0.1 0 1.2
v 0 0 1.2
v -0.9 0 1.1
v -0.1 0 1.1
v 0 0 1.1
v 0.9 0 1.1
v -1 0 0.3
v -0.9 0 0.3
v 0.9 0 0.3
v 1 0 0.3
v -1 0 0.2
v -0.9 0 0.2
v 0.9 0 0.2
v 1 0 0.2
v -0.9 0 -0.6
v 0 0 -0.6
v 0.1 0 -0.6
v 0.9 0 -0.6
v 0 0 -0.7
v 0.1 0 -0.7
v -1.6 2.4 0.4
v -0.6 2.4 0.4
v -1.6 2.4 0.3
v -0.6 2.4 0.3
v -1.6 2.4 0.0999999
v -0.6 2.4 0.0999999
v -1.6 2.4 -1.19209e-07
v -0.6 2.4 -1.19209e-07
v -0.9 0.1 1.1
v -0.1 0.1 1.1
v 0 0.1 1.1
v 0.9 0.1 1.1
v -0.8 0.1 1
v -0.1 0.1 1
v 0 0.1 1
v 0.8 0.1 1
v -0.9 0.1 0.3
v -0.8 0.1 0.3
v 0.8 0.1 0.3
v 0.9 0.1 0.3
v -0.9 0.1 0.2
v -0.8 0.1 0.2
v 0.8 0.1 0.2
v 0.9 0.1 0.2
v -0.8 0.1 -0.5
v 0 0.1 -0.5
v 0.1 0.1 -0.5
v 0.8 0.1 -0.5
v -0.9 0.1 -0.6
v 0 0.1 -0.6
v 0.1 0.1 -0.6
v 0.9 0.1 -0.6
v -0.1 0.2 1.2
v 0 0.2 1.2
v -0.1 0.2 1
v 0 0.2 1
v -1 0.2 0.3
v -0.8 0.2 0.3
v 0.8 0.2 0.3
v 1 0.2 0.3
v -1 0.2 0.2
v -0.8 0.2 0.2
v 0.8 0.2 0.2
v 1 0.2 0.2
v 0 0.2 -0.5
v 0.1 0.2 -0.5
v 0 0.2 -0.7
v 0.1 0.2 -0.7
v -0.8 0.3 1
v 0.8 0.3 1
v -0.6 0.3 0.9
v 0.7 0.3 0.9
v -0.6 0.3 -0.4
v 0.7 0.3 -0.4
v -0.8 0.3 -0.5
v 0.8 0.3 -0.5
v -0.6 2.4 0.9
v 0.7 2.4 0.9
v -0.1 2.4 0.5
v 0.3 2.4 0.5
v -0.6 2.4 0.4
v -0.5 2.4 0.4
v -0.6 2.4 -1.19209e-07
v -0.5 2.4 -1.19209e-07
v -0.1 2.4 -1.19209e-07
v 0.3 2.4 -1.19209e-07
v -0.6 2.4 -0.4
v 0.7 2.4 -0.4
v -1.6 2.5 0.4
v -0.6 2.5 0.4
v -0.5 2.5 0.4
v -1.6 2.5 0.3
v -0.6 2.5 0.3
v -1.6 2.5 0.0999999
v -0.6 2.5 0.0999999
v -1.6 2.5 -1.19209e-07
v -0.6 2.5 -1.19209e-07
v -0.5 2.5 -1.19209e-07
v -0.1 2.8 0.5
v 0.3 2.8 0.5
v -0.1 2.8 -1.19209e-07
v 0.3 2.8 -1.19209e-07

# faces
f 5/4/1 2/4/1 1/4/1
f 6/4/1 2/4/1 5/4/1
f 7/4/1 4/4/1 3/4/1
f 8/4/1 4/4/1 7/4/1
f 11/4/1 10/4/1 9/4/1
f 12/4/1 10/4/1 11/4/1
f 17/1/1 14/1/1 13/1/1
f 18/1/1 14/1/1 17/1/1
f 19/1/1 16/1/1 15/1/1
f 20/1/1 16/1/1 19/1/1
f 25/2/1 22/2/1 21/2/1
f 26/2/1 24/2/1 23/2/1
f 27/2/1 25/2/1 21/2/1
f 27/2/1 26/2/1 25/2/1
f 28/2/1 24/2/1 26/2/1
f 28/2/1 26/2/1 27/2/1
f 31/2/1 30/2/1 29/2/1
f 32/2/1 30/2/1 31/2/1
f 33/2/1 30/2/1 32/2/1
f 34/2/1 30/2/1 33/2/1
f 35/2/1 30/2/1 34/2/1
f 36/2/1 30/2/1 35/2/1
f 37/2/1 34/2/1 33/2/1
f 38/2/1 34/2/1 37/2/1
f 41/4/1 40/4/1 39/4/1
f 43/4/1 41/4/1 39/4/1
f 43/4/1 42/4/1 41/4/1
f 44/4/1 42/4/1 43/4/1
f 47/2/1 46/2/1 45/2/1
f 48/2/1 46/2/1 47/2/1
f 49/2/1 46/2/1 48/2/1
f 50/2/1 46/2/1 49/2/1
f 51/2/1 47/2/1 45/2/1
f 51/3/1 48/3/1 47/3/1
f 52/2/1 49/2/1 48/2/1
f 52/3/1 48/3/1 51/3/1
f 53/3/1 50/3/1 49/3/1
f 53/2/1 49/2/1 52/2/1
f 54/2/1 46/2/1 50/2/1
f 54/3/1 50/3/1 53/3/1
f 55/2/1 53/2/1 52/2/1
f 55/2/1 52/2/1 51/2/1
f 55/2/1 54/2/1 53/2/1
f 55/2/1 51/2/1 45/2/1
f 56/2/1 46/2/1 54/2/1
f 56/2/1 54/2/1 55/2/1
f 60/4/1 58/4/1 57/4/1
f 61/4/1 60/4/1 59/4/1
f 62/4/1 58/4/1 60/4/1
f 62/4/1 60/4/1 61/4/1
f 63/2/2 64/2/2 65/2/2
f 65/2/2 64/2/2 66/2/2
f 67/4/2 68/4/2 69/4/2
f 67/4/2 69/4/2 71/4/2
f 69/4/2 70/4/2 71/4/2
f 71/4/2 70/4/2 72/4/2
f 73/4/2 74/4/2 76/4/2
f 75/4/2 76/4/2 77/4/2
f 76/4/2 74/4/2 78/4/2
f 77/4/2 76/4/2 78/4/2
f 79/2/2 80/2/2 81/2/2
f 81/2/2 80/2/2 82/2/2
f 83/2/2 84/2/2 85/2/2
f 85/2/2 84/2/2 86/2/2
f 87/2/2 88/2/2 91/2/2
f 89/2/2 90/2/2 92/2/2
f 87/2/2 91/2/2 93/2/2
f 91/2/2 92/2/2 93/2/2
f 92/2/2 90/2/2 94/2/2
f 93/2/2 92/2/2 94/2/2
f 95/1/2 96/1/2 99/1/2
f 99/1/2 96/1/2 100/1/2
f 97/1/2 98/1/2 101/1/2
f 101/1/2 98/1/2 102/1/2
f 103/4/2 104/4/2 105/4/2
f 105/4/2 104/4/2 106/4/2
f 109/4/3 108/4/3 107/4/3
f 110/4/3 108/4/3 109/4/3
f 113/1/3 112/1/3 111/1/3
f 114/1/3 112/1/3 113/1/3
f 117/1/3 116/1/3 115/1/3
f 118/1/3 116/1/3 117/1/3
f 121/2/3 120/2/3 119/2/3
f 122/2/3 120/2/3 121/2/3
f 124/2/3 120/2/3 122/2/3
f 125/2/3 124/2/3 123/2/3
f 126/2/3 120/2/3 124/2/3
f 126/2/3 124/2/3 125/2/3
f 129/2/3 128/2/3 127/2/3
f 130/2/3 128/2/3 129/2/3
f 133/2/3 132/2/3 131/2/3
f 134/2/3 132/2/3 133/2/3
f 137/4/3 136/4/3 135/4/3
f 138/4/3 136/4/3 137/4/3
f 139/2/3 138/2/3 137/2/3
f 140/2/3 138/2/3 139/2/3
f 143/4/3 142/4/3 141/4/3
f 144/4/3 142/4/3 143/4/3
f 145/4/3 142/4/3 144/4/3
f 146/4/3 142/4/3 145/4/3
f 150/4/3 148/4/3 147/4/3
f 151/4/3 150/4/3 149/4/3
f 152/4/3 148/4/3 150/4/3
f 152/4/3 150/4/3 151/4/3
f 155/4/3 154/4/3 153/4/3
f 156/4/3 154/4/3 155/4/3
f 157/4/4 158/4/4 159/4/4
f 159/4/4 158/4/4 160/4/4
f 161/4/4 162/4/4 163/4/4
f 163/4/4 162/4/4 164/4/4
f 164/4/4 162/4/4 165/4/4
f 165/4/4 162/4/4 166/4/4
f 167/4/4 168/4/4 170/4/4
f 169/4/4 170/4/4 171/4/4
f 170/4/4 168/4/4 172/4/4
f 171/4/4 170/4/4 172/4/4
f 173/4/4 174/4/4 175/4/4
f 175/4/4 174/4/4 176/4/4
f 175/2/4 176/2/4 177/2/4
f 177/2/4 176/2/4 178/2/4
f 179/2/4 180/2/4 181/2/4
f 181/2/4 180/2/4 182/2/4
f 183/2/4 184/2/4 185/2/4
f 185/2/4 184/2/4 186/2/4
f 187/2/4 188/2/4 189/2/4
f 189/2/4 188/2/4 190/2/4
f 190/2/4 188/2/4 192/2/4
f 191/2/4 192/2/4 193/2/4
f 192/2/4 188/2/4 194/2/4
f 193/2/4 192/2/4 194/2/4
f 195/1/4 196/1/4 197/1/4
f 197/1/4 196/1/4 198/1/4
f 199/1/4 200/1/4 201/1/4
f 201/1/4 200/1/4 202/1/4
f 203/4/4 204/4/4 205/4/4
f 205/4/4 204/4/4 206/4/4
f 210/4/5 208/4/5 207/4/5
f 211/4/5 208/4/5 210/4/5
f 214/1/5 210/1/5 209/1/5
f 214/1/5 212/1/5 211/1/5
f 214/1/5 211/1/5 210/1/5
f 215/1/5 212/1/5 214/1/5
f 217/4/5 214/4/5 213/4/5
f 218/1/5 215/1/5 214/1/5
f 218/4/5 214/4/5 217/4/5
f 219/4/5 216/4/5 215/4/5
f 219/1/5 215/1/5 218/1/5
f 220/4/5 216/4/5 219/4/5
f 221/1/5 219/1/5 218/1/5
f 222/1/5 219/1/5 221/1/5
f 223/1/5 219/1/5 222/1/5
f 224/1/5 219/1/5 223/1/5
f 225/4/5 223/4/5 222/4/5
f 226/4/5 223/4/5 225/4/5
f 229/4/5 228/4/5 227/4/5
f 230/4/5 228/4/5 229/4/5
f 233/4/5 232/4/5 231/4/5
f 234/4/5 232/4/5 233/4/5
f 235/1/6 236/1/6 239/1/6
f 239/1/6 236/1/6 240/1/6
f 237/1/6 238/1/6 241/1/6
f 241/1/6 238/1/6 242/1/6
f 235/1/6 239/1/6 243/1/6
f 243/1/6 239/1/6 244/1/6
f 242/1/6 238/1/6 245/1/6
f 245/1/6 238/1/6 246/1/6
f 247/1/6 248/1/6 251/1/6
f 249/1/6 250/1/6 254/1/6
f 251/1/6 252/1/6 255/1/6
f 247/1/6 251/1/6 255/1/6
f 255/1/6 252/1/6 256/1/6
f 253/1/6 254/1/6 257/1/6
f 254/1/6 250/1/6 258/1/6
f 257/1/6 254/1/6 258/1/6
f 259/4/6 260/4/6 261/4/6
f 261/4/6 260/4/6 262/4/6
f 263/4/6 264/4/6 267/4/6
f 267/4/6 264/4/6 268/4/6
f 265/4/6 266/4/6 269/4/6
f 269/4/6 266/4/6 270/4/6
f 271/4/6 272/4/6 273/4/6
f 273/4/6 272/4/6 274/4/6
f 275/2/6 276/2/6 277/2/6
f 277/2/6 276/2/6 278/2/6
f 275/2/6 277/2/6 279/2/6
f 278/2/6 276/2/6 280/2/6
f 275/2/6 279/2/6 281/2/6
f 279/2/6 280/2/6 281/2/6
f 280/2/6 276/2/6 282/2/6
f 281/2/6 280/2/6 282/2/6
f 283/2/6 284/2/6 285/2/6
f 285/2/6 284/2/6 286/2/6
f 283/2/6 285/2/6 287/2/6
f 287/2/6 285/2/6 288/2/6
f 288/2/6 285/2/6 290/2/6
f 290/2/6 285/2/6 291/2/6
f 286/2/6 284/2/6 292/2/6
f 290/2/6 291/2/6 293/2/6
f 291/2/6 292/2/6 293/2/6
f 289/2/6 290/2/6 293/2/6
f 292/2/6 284/2/6 294/2/6
f 293/2/6 292/2/6 294/2/6
f 295/4/6 296/4/6 298/4/6
f 296/2/6 297/2/6 299/2/6
f 298/4/6 296/4/6 299/4/6
f 299/2/6 297/2/6 301/2/6
f 300/4/6 301/4/6 302/4/6
f 301/2/6 297/2/6 303/2/6
f 302/4/6 301/4/6 303/4/6
f 303/2/6 297/2/6 304/2/6
f 305/2/6 306/2/6 307/2/6
f 307/2/6 306/2/6 308/2/6
