# MagicaVoxel @ Ephtracy

# group
o 

# material
mtllib Уточки и рабский труд-0.mtl
usemtl palette

# normals
vn -1 0 0
vn 1 0 0
vn 0 0 1
vn 0 0 -1
vn 0 -1 0
vn 0 1 0

# texcoords
vt 0.208984 0.5
vt 0.982422 0.5

# verts
v 16.5 0 5.8
v 16.5 0 5.4
v 16.5 0 1.8
v 16.5 0 1.4
v 16.5 0.1 5.8
v 16.5 0.1 5.4
v 16.5 0.1 1.8
v 16.5 0.1 1.4
v 16.5 1.4 1.8
v 16.5 1.4 1.5
v 16.5 1.7 1.5
v 16.5 1.7 1.4
v 21.7 0 1.7
v 21.7 0 1.2
v 21.7 0.1 1.7
v 21.7 0.1 1.2
v 21.9 0 5.7
v 21.9 0 5.3
v 21.9 0.1 5.7
v 21.9 0.1 5.3
v 16.6 1.4 1.5
v 16.6 1.4 1.4
v 16.6 1.7 1.5
v 16.6 1.7 1.4
v 16.9 0 5.8
v 16.9 0 5.4
v 16.9 0 1.8
v 16.9 0 1.4
v 16.9 0.1 5.8
v 16.9 0.1 5.4
v 16.9 0.1 1.8
v 16.9 0.1 1.4
v 16.9 1.4 1.8
v 16.9 1.4 1.4
v 22.2 0 1.7
v 22.2 0 1.2
v 22.2 0.1 1.7
v 22.2 0.1 1.2
v 22.3 0 5.7
v 22.3 0 5.3
v 22.3 0.1 5.7
v 22.3 0.1 5.3
v 16.5 0 5.8
v 16.5 0.1 5.8
v 16.9 0 5.8
v 16.9 0.1 5.8
v 21.9 0 5.7
v 21.9 0.1 5.7
v 22.3 0 5.7
v 22.3 0.1 5.7
v 16.5 0 1.8
v 16.5 0.1 1.8
v 16.5 1.4 1.8
v 16.9 0 1.8
v 16.9 0.1 1.8
v 16.9 1.4 1.8
v 21.7 0 1.7
v 21.7 0.1 1.7
v 22.2 0 1.7
v 22.2 0.1 1.7
v 16.5 1.4 1.5
v 16.5 1.7 1.5
v 16.6 1.4 1.5
v 16.6 1.7 1.5
v 16.5 0 5.4
v 16.5 0.1 5.4
v 16.9 0 5.4
v 16.9 0.1 5.4
v 21.9 0 5.3
v 21.9 0.1 5.3
v 22.3 0 5.3
v 22.3 0.1 5.3
v 16.5 0 1.4
v 16.5 0.1 1.4
v 16.5 1.7 1.4
v 16.6 1.4 1.4
v 16.6 1.7 1.4
v 16.9 0 1.4
v 16.9 0.1 1.4
v 16.9 1.4 1.4
v 21.7 0 1.2
v 21.7 0.1 1.2
v 22.2 0 1.2
v 22.2 0.1 1.2
v 16.5 0 5.8
v 16.9 0 5.8
v 21.9 0 5.7
v 22.3 0 5.7
v 16.5 0 5.4
v 16.9 0 5.4
v 21.9 0 5.3
v 22.3 0 5.3
v 16.5 0 1.8
v 16.9 0 1.8
v 21.7 0 1.7
v 22.2 0 1.7
v 16.5 0 1.4
v 16.9 0 1.4
v 21.7 0 1.2
v 22.2 0 1.2
v 16.5 0.1 5.8
v 16.9 0.1 5.8
v 21.9 0.1 5.7
v 22.3 0.1 5.7
v 16.5 0.1 5.4
v 16.9 0.1 5.4
v 21.9 0.1 5.3
v 22.3 0.1 5.3
v 21.7 0.1 1.7
v 22.2 0.1 1.7
v 21.7 0.1 1.2
v 22.2 0.1 1.2
v 16.5 1.4 1.8
v 16.9 1.4 1.8
v 16.5 1.4 1.5
v 16.6 1.4 1.5
v 16.6 1.4 1.4
v 16.9 1.4 1.4
v 16.5 1.7 1.5
v 16.6 1.7 1.5
v 16.5 1.7 1.4
v 16.6 1.7 1.4

# faces
f 5/2/1 2/2/1 1/2/1
f 6/2/1 2/2/1 5/2/1
f 7/2/1 4/2/1 3/2/1
f 8/2/1 4/2/1 7/2/1
f 9/1/1 8/1/1 7/1/1
f 10/1/1 8/1/1 9/1/1
f 11/1/1 8/1/1 10/1/1
f 12/1/1 8/1/1 11/1/1
f 15/2/1 14/2/1 13/2/1
f 16/2/1 14/2/1 15/2/1
f 19/2/1 18/2/1 17/2/1
f 20/2/1 18/2/1 19/2/1
f 21/1/2 22/1/2 23/1/2
f 23/1/2 22/1/2 24/1/2
f 25/2/2 26/2/2 29/2/2
f 29/2/2 26/2/2 30/2/2
f 27/2/2 28/2/2 31/2/2
f 31/2/2 28/2/2 32/2/2
f 31/1/2 32/1/2 33/1/2
f 33/1/2 32/1/2 34/1/2
f 35/2/2 36/2/2 37/2/2
f 37/2/2 36/2/2 38/2/2
f 39/2/2 40/2/2 41/2/2
f 41/2/2 40/2/2 42/2/2
f 45/2/3 44/2/3 43/2/3
f 46/2/3 44/2/3 45/2/3
f 49/2/3 48/2/3 47/2/3
f 50/2/3 48/2/3 49/2/3
f 54/2/3 52/2/3 51/2/3
f 55/1/3 53/1/3 52/1/3
f 55/2/3 52/2/3 54/2/3
f 56/1/3 53/1/3 55/1/3
f 59/2/3 58/2/3 57/2/3
f 60/2/3 58/2/3 59/2/3
f 63/1/3 62/1/3 61/1/3
f 64/1/3 62/1/3 63/1/3
f 65/2/4 66/2/4 67/2/4
f 67/2/4 66/2/4 68/2/4
f 69/2/4 70/2/4 71/2/4
f 71/2/4 70/2/4 72/2/4
f 74/1/4 75/1/4 76/1/4
f 76/1/4 75/1/4 77/1/4
f 73/2/4 74/2/4 78/2/4
f 74/1/4 76/1/4 79/1/4
f 78/2/4 74/2/4 79/2/4
f 79/1/4 76/1/4 80/1/4
f 81/2/4 82/2/4 83/2/4
f 83/2/4 82/2/4 84/2/4
f 89/2/5 86/2/5 85/2/5
f 90/2/5 86/2/5 89/2/5
f 91/2/5 88/2/5 87/2/5
f 92/2/5 88/2/5 91/2/5
f 97/2/5 94/2/5 93/2/5
f 98/2/5 94/2/5 97/2/5
f 99/2/5 96/2/5 95/2/5
f 100/2/5 96/2/5 99/2/5
f 101/2/6 102/2/6 105/2/6
f 105/2/6 102/2/6 106/2/6
f 103/2/6 104/2/6 107/2/6
f 107/2/6 104/2/6 108/2/6
f 109/2/6 110/2/6 111/2/6
f 111/2/6 110/2/6 112/2/6
f 113/1/6 114/1/6 115/1/6
f 115/1/6 114/1/6 116/1/6
f 116/1/6 114/1/6 117/1/6
f 117/1/6 114/1/6 118/1/6
f 119/1/6 120/1/6 121/1/6
f 121/1/6 120/1/6 122/1/6
